<?xml version="1.0" encoding="UTF-8"?>
<svg id="Layer_1" data-name="Layer 1" xmlns="http://www.w3.org/2000/svg" viewBox="0 0 512 512">
  <defs>
    <style>
      .cls-1 {
        fill: #c7c9c9;
      }

      .cls-2 {
        fill: #c2c2c3;
      }

      .cls-3 {
        fill: #abacaf;
      }

      .cls-4 {
        fill: #bdbdbd;
      }

      .cls-5 {
        fill: #edecec;
      }

      .cls-6 {
        fill: #646365;
      }

      .cls-7 {
        fill: #fefefe;
      }

      .cls-8 {
        fill: #cfcece;
      }

      .cls-9 {
        fill: #b3b2b3;
      }

      .cls-10 {
        fill: #ecebec;
      }

      .cls-11 {
        fill: #fff;
      }

      .cls-12 {
        fill: #b4b4b3;
      }

      .cls-13 {
        fill: #b0afb1;
      }

      .cls-14 {
        fill: #212123;
      }

      .cls-15 {
        fill: #c8c9cd;
      }

      .cls-16 {
        fill: #252326;
      }

      .cls-17 {
        fill: #fdfdfc;
      }

      .cls-18 {
        fill: #cecdcc;
      }

      .cls-19 {
        fill: #7e8580;
      }

      .cls-20 {
        fill: #252533;
      }

      .cls-21 {
        fill: #bfbebe;
      }

      .cls-22 {
        fill: #c2c0c0;
      }

      .cls-23 {
        fill: #aeacad;
      }

      .cls-24 {
        fill: #e6e7e8;
      }

      .cls-25 {
        fill: #c8c9c9;
      }

      .cls-26 {
        fill: #d5d4d4;
      }

      .cls-27 {
        fill: #e4e4e4;
      }

      .cls-28 {
        fill: #c8cac6;
      }

      .cls-29 {
        fill: #c8c8c8;
      }

      .cls-30 {
        fill: #848485;
      }

      .cls-31 {
        fill: #626466;
      }

      .cls-32 {
        fill: #fefffe;
      }

      .cls-33 {
        fill: #adaeaf;
      }

      .cls-34 {
        fill: #e2e5e5;
      }

      .cls-35 {
        fill: #222022;
      }

      .cls-36 {
        fill: #848382;
      }

      .cls-37 {
        fill: #feffff;
      }

      .cls-38 {
        fill: #a8abae;
      }

      .cls-39 {
        fill: #e4e5e6;
      }

      .cls-40 {
        fill: #d1d0d0;
      }

      .cls-41 {
        fill: #cfd0ce;
      }

      .cls-42 {
        fill: #8d8d8d;
      }
    </style>
  </defs>
  <circle class="cls-20" cx="256" cy="256" r="252.81"/>
  <g>
    <path class="cls-10" d="M335.83,307.69c1.04-.34,3.2-.28,3.7,1.32-.46,1.26-3.61.08-3.7-1.32Z"/>
    <path class="cls-10" d="M339.69,316.62c.58.43-.33,1.85-.81,2.25l-.47.1c-.81-.12-1.43-1.02-1.19-1.54.31-.69,1.52-1.52,2.47-.81Z"/>
    <path class="cls-10" d="M339.23,325.86c.41,1.07-.1,1.89-.35,2.84-.13-.03-.23-.06-.33-.1-.29-.11-.47-.28-.58-.47-.21-.3-.3-.67-.27-1.03,0,0,0-.01,0-.02-.05-.56.21-.91.56-1.09,0,0,0,0,.01,0,.25-.18.58-.24.96-.11Z"/>
    <path class="cls-10" d="M339.72,297.75c1.09-.16,2.5-.92,3.82-.21l1.17.62c.38.21.72,1.18.18,1.39-1.76.67-3.3-.41-5.17-1.8Z"/>
    <path class="cls-10" d="M347.26,306.76c.74,2.08-1.26,3.3-2.49,4.06-.55.03-1-.07-1.34-.27-.06-.02-.12-.06-.17-.1-.05-.04-.1-.07-.15-.12-.03-.02-.05-.04-.07-.07-.02-.02-.04-.04-.07-.07-.03-.02-.04-.04-.06-.07-.28-.32-.44-.75-.44-1.3,0-.39.15-.82.4-1.23.02-.04.04-.08.07-.12.31-.58.82-1.09,1.48-1.37.66-.41,2.48-.35,2.84.65Z"/>
    <path class="cls-10" d="M341.01,295.02c2.34-1.18,4.78-1.8,7.27-1.83-.65.45-.72,1.26-.55,1.46-2.14.4-4.15,1.44-6.72.37Z"/>
    <path class="cls-10" d="M353.2,283.72l-11.15-2.57c3.94-1.77,7.57-2.79,11.88-2.14-.97,1.26-2.39,1.26-4.09,1.8l4.5.04c.86,0,1,1.46.6,2.01-.29.4-.77,1.09-1.74.86Z"/>
    <path class="cls-10" d="M350.92,293.69c-.29-1.44.79-2.03,1.46-2.7,1.34-1.35,2.11-.43,3.12-.36.19,1.44-.61,2.32-1.49,2.93-1.1.77-1.88.38-3.09.13Z"/>
    <path class="cls-10" d="M360.11,315.03c-.78,1.52-1.94,2.59-3.11,2.97-1.55.52-3.47.2-4.48-1.24-1.52-2.16-.52-4.91,1.29-6.63,1.66-1.57,3.78-2,5.62-.56,1.36,1.06,1.73,3.39.68,5.46Z"/>
    <path class="cls-10" d="M367.03,281.32c-.15.57-.27,1.37-.58,2.03h0c-.07.16-.15.3-.24.43-.86,1.21-2.27,2.23-3.75,2.21-1.14-.95-1-2.53-.3-3.95.08-.16.16-.33.26-.49.05-.09.1-.18.16-.27.69-1.11,1.7-1.99,2.66-2.22.08-.01.16-.03.23-.03,1.01,0,1.75,1.54,1.57,2.28Z"/>
    <path class="cls-10" d="M363.15,295.87c-1.07,5.42-6.77,7.97-7.75,5.64-.18-.42.09-1.33.55-1.83l4.43-4.87c.52-.56,1.27-.72,1.83-.55.44.13,1.11.75.94,1.62Z"/>
    <path class="cls-10" d="M369.8,296.45c-1.49-.38-2.44-1.8-1.93-3.38.24-.75.78-1.57.47-2.2.75-.8,1.48-1.32,2.14-1.6,0,0,.01,0,.02,0,.75-.45,1.46-.61,2.21-.08.16.1.29.22.41.35.76.72.91,1.65.68,2.71h0c-.12.77-.43,1.61-.98,2.51-.88.95-2.11,1.95-3.03,1.71Z"/>
    <path class="cls-10" d="M378.21,311.29c.6,2.93-.47,5.94-3.29,7.6-2.48.98-4.74,0-5.45-2.22-1.11-3.52.59-7.43,4.15-8.57,2.19-.69,4.16,1.09,4.58,3.19Z"/>
    <path class="cls-10" d="M385.52,297.59c-2.23-.3-3.16-2.64-3.37-4.25-.03-.25-.05-.5-.06-.77l4.12,5.03c-.22.02-.45.01-.69-.01Z"/>
    <path class="cls-10" d="M396.53,310.19l-11.62,4.93c-.13-1.63.31-3.48,1.23-5.14-.18-.31,0-.5.14-.57.62-1.57,1.65-2.79,2.82-3.6.09-.07.18-.13.27-.18.77-.55,1.63-.94,2.56-1.04l.1.11,4.5,5.5Z"/>
    <path class="cls-10" d="M141.46,316.14c-.45,1.37-1.64,3.27-3.83,3.34-2.72.1-4.36-2.11-5.07-4.17-.83-2.42-.45-5.15,1.88-6.81,2.19-1.56,4.91-.25,6.27,2.08,1,1.71,1.32,3.84.75,5.56Z"/>
    <path class="cls-10" d="M113.86,284.95c-.75-.12-1.63-.58-2.28-1.32,1.47-3.44,2.99-6.32,4.02-6.32.52,0,1.95.07,3.92.17.24,2.22-.55,4.64-2.29,6.3-1.06,1.01-2.3,1.32-3.37,1.16Z"/>
    <path class="cls-10" d="M123.08,310.19c1.09,2.81,1.16,6.52-1.51,8.43-.1.07-.19.13-.29.18-3.3-1.17-5.82-2.05-7.16-2.52-.42-.15-.73-.25-.9-.32.21.04.44.04.64-.04-.33,0-1.44-3.62-1.52-4.02-.19-1.06-.21-2.15.05-3.18.3-1.69,1.14-3.04,2.5-3.74,1.29-.66,2.64-.57,3.9.05,1.1.45,2.05,1.32,2.73,2.36.5.65.93,1.39,1.29,2.19.09.19.17.39.25.6Z"/>
    <path class="cls-10" d="M124.97,277.79c2.43.14,5.08.3,7.61.47-.15.26-.3.51-.44.75-.3.46-.6.88-.91,1.24-.21.24-.41.46-.63.67-1.17,1.08-2.39,1.43-3.49.67-.31-.21-.59-.47-.83-.75-.07-.07-.13-.14-.18-.21-.68-.81-1.07-1.77-1.23-2.84.03,0,.07,0,.1,0Z"/>
    <path class="cls-10" d="M129.23,291.76c.04.27.04.52.03.77-.09,1.83-.61,3.52-2.18,4.89-.1.09-.21.18-.32.26-.72.55-1.6.95-2.52.81-.12-.01-.24-.04-.37-.08-.86-.15-1.66-.73-2.13-1.48-.19-.3-.34-.62-.44-.96,0,0,0,0,0-.01-1.26-3.08.69-7.39,4.26-7.84,1.43-.18,2.42.57,3.01,1.6.01.02.03.04.04.05.2.28.35.6.44.95.02.1.04.2.06.3.07.25.11.5.13.75Z"/>
    <path class="cls-10" d="M141.86,289.65c1.19,1.23,2.22,3.05,1.76,5.06-.32,1.41-1.93,2.19-3.27,1.6-2.33-1.03-3.4-3.71-2.75-5.91.08-.29.22-.57.41-.81.35-.45.88-.78,1.5-.82.38-.02.77.01,1.13.13,0,0,.02,0,.03,0,.43.13.84.37,1.18.73Z"/>
    <path class="cls-10" d="M149.75,284.45c-.19,1.74-1.69,1.55-2.25,1.26-.32-.17-.61-.36-.89-.57-1.17-.92-1.88-2.22-2.11-3.81-.07-.51.09-1.56.72-2,.69.33,2,1.05,3.69,2.01.6.96.95,2.11.84,3.11Z"/>
    <path class="cls-10" d="M155.46,301.95c-1.35,1.27-4.8-.16-6.45-3.5-.3-.6-.52-1.38-.7-2.06-.03-.13-.07-.26-.1-.38-.16-.6.57-1.99,1.41-1.89.17.07.33.15.5.23.02,0,.05,0,.07,0,.87.12,1.46.75,1.97,1.52.97.96,1.77,2.09,2.56,3.16.2.27.4.52.6.78.57.71.63,1.69.14,2.15Z"/>
    <path class="cls-10" d="M170.79,294.63c-3.12,1.62-6.3-.25-9.19-1.48-1.15.44-2.83,1.29-3.93.52-.82-.56-2.56-2.08-1.36-3.31,1.26-1.28,3.07,1.39,4.15,1.66l10.32,2.6Z"/>
    <path class="cls-10" d="M168.76,309.94c-.1.19-.23.38-.4.58-1.23.37-2.31.12-3.3-.76-.72-.64-1.61-1.98-.78-3.16.65-.92,2.03-.72,3.01-.43h0c.3.25.55.54.75.88.52.85.59,1.88.71,2.88Z"/>
    <path class="cls-10" d="M171.32,297.78c-.16,1.39-3.98,3.28-4.72,1.25-.52-1.44,3.01-2.8,4.72-1.25Z"/>
    <path class="cls-10" d="M176.31,308.01c-1.06.81-2.19,1.54-3.73,1.7-.38.04-.65-.3-.7-.69-.05-.3.03-.63.29-.83.76-.6,2.73-.95,4.15-.18Z"/>
    <path class="cls-10" d="M157.38,317.44c-1.46,1.13-3.93.81-5.51-.84-1.15-1.2-1.71-2.55-1.69-4.08.02-1.26.67-2.89,2.25-3.54,2.66-1.12,5.15.68,6.22,3.08.85,1.89.44,4.04-1.28,5.37Z"/>
    <path class="cls-10" d="M161.35,333.5c-1.66-.64-3.38-1.3-5.16-1.98-.05-.41-.01-.81.24-1.2.3-.45.72-1.15,1.92-.84,1.32.34,3.03,2.25,2.99,4.03Z"/>
    <path class="cls-10" d="M173.76,326.53v2.18c-.39.13-1.03-.03-1.11-.35-.06-.27-.04-.94.07-1.46-.46-.67.33-1.34.82-.76h0c.08.1.16.24.21.4Z"/>
    <path class="cls-10" d="M174.78,317.09c-.02.52-.2,1.17-.49,1.49-.33.37-.81.44-1.26.35-.11-.02-.21-.05-.32-.09-.44-.33-1.26-1.49-.58-2.14.72-.71,1.68-.35,2.28.07.15.1.27.21.37.3Z"/>
    <path class="cls-21" d="M169.48,137.81c-1.81,1.46-4.35.46-6.68-.19-1.66-.78-3.25-1.61-4.82-2.49-.02,0-.04-.02-.06-.03-10.42-5.85-19.21-13.61-30.72-19.22-1.46-.72-3.01-1.41-4.61-2.08-.03-.01-.07-.03-.1-.04-.02,0-.04-.02-.07-.03,0,0,0,0-.01,0-8.36-3.44-18.28-5.94-26.86-4.73-.03,0-.05,0-.08.01-.04,0-.07,0-.1.01-2.83.41-5.51,1.23-7.94,2.56.08.84.21,1.67.41,2.48.07.27.13.52.2.78h0c.82,2.88,2.33,5.54,4.36,7.88.03.03.05.06.08.09,0,.01.02.03.04.04,1.07,1.23,2.29,2.37,3.63,3.42l2.11.76s0,0,.01,0l5.96,2.15s-.16.18-.29.35l-2.36-.57s-.05-.01-.07-.02l-2.86-.69c-.24-.06-.52-.16-.81-.25,0,0-.01,0-.02,0,0,0-.02,0-.03,0-.58-.18-1.2-.3-1.69.06-.06.04-.11.08-.16.13-3.08-1.12-6.07-.21-7.41,3.19-1.17,2.93-1.34,6.27-.87,9.64,2.31,16.89,13.92,29.04,24.12,41.94-4.34,3.78-6.27,9.4-4.06,14.85-.97-.37-1.39-1.15-2.21-.67,0,2.77,1.94,6.04,2.53,8.38.13.52.61,1.78.41,2.31-.07.18-.13.35-.19.53-.17.47-.35.97-.52,1.49-.89,2.53-1.88,5.57-2.51,7.75-.83.21-.95-.4-1.5-1.11-4.62-5.89-9.29-11.48-12.42-17.89.24-.07.47-.22.39-.69-1.02-5.71.45-11.2,3.87-15.81-3.66-2-6.1-4.49-8.74-6.24-5.83-8.18-10.66-16.9-12.86-27.19-4.6-21.5,3.65-43.29,25.51-46.87,14.66-2.4,31.42,3.64,43.58,11.84l9.47,6.39,6.25,6.34,10.67,11.46Z"/>
    <path class="cls-22" d="M436.72,122.98c-2.19-.84-2.21-3.84-3.96-3.99-.29-.02.35-.55.24-.8-.03-.06-.07-.12-.11-.16-.04-.05-.09-.1-.13-.14-.02-.03-.04-.04-.07-.07-.02-.02-.05-.04-.07-.06-.05-.04-.1-.07-.16-.1-.02-.02-.05-.04-.08-.05-.17-.1-.35-.2-.54-.29-.24-.12-.48-.22-.64-.33-.21-.13-.34-.26-.25-.38h.01v-.02l.42-.56c-2.33-2.44-4.99-4.24-7.92-5.45-.02,0-.04-.01-.07-.03-2.76-1.14-5.75-1.75-8.91-1.88-6.04-.07-11.62.76-16.92,2.27-.04,0-.09.02-.13.04-.01,0-.03,0-.04.01h0c-9.63,2.77-18.34,7.77-27.18,13.59l-9.3,6.13c-.06.04-.12.07-.18.11l-6.37,4.2c-2.08,1.37-4.8,2.5-7.09,3.07-.06.01-.12.03-.18.04-.5.12-.98.21-1.43.27h0c-1.96.27-3.25-.07-2.88-1.29l6.43-6.19c6.79-7.32,14.35-13.25,22.11-18.98,1.12-.87,2.06-1.28,3.3-2.17l8.17-3.77c8.37-3.87,17.34-5.46,26.38-4.71,13.26,1.11,23.54,9.47,27.56,21.69Z"/>
    <path class="cls-4" d="M417.15,199.61c-3.73,6.64-8.58,12.56-13.78,18.38h0c-.07.08-.13.15-.19.22l-3.9-11.51.08-.21.84-2.08c.65-1.93,2.17-3.57,2.28-5.41,1.09-.34,1.54.33,2.35.86,3.42,2.25,7.76,1.83,11.34.44-.27-.67.24-.91.44-.86l.54.16Z"/>
    <path class="cls-20" d="M371.3,111.94c-7.75,5.73-15.31,11.65-22.11,18.98l-6.43,6.19c-.29.28-.92.89-1.52.73l-10.22-2.62c3.7-2.07,7.09-3.21,10.83-5.51l26.15-16.06c1.2-.74,1.77-1.07,3.3-1.71Z"/>
    <path class="cls-14" d="M121.57,318.61c-.1.07-.19.13-.29.18-2.59,1.57-5.62-.13-7.16-2.52-.07-.11-.14-.23-.21-.34-1.41-2.48-1.89-5.11-1.52-7.21.3-1.69,1.14-3.04,2.5-3.74,1.29-.66,2.64-.57,3.9.05,1.01.48,1.94,1.3,2.73,2.36.5.65.93,1.39,1.29,2.19.09.19.17.39.25.6,1.09,2.81,1.16,6.52-1.51,8.43Z"/>
    <polygon class="cls-20" points="180.24 135.07 169.48 137.81 158.81 126.35 152.56 120.01 171.42 130.83 180.24 135.07"/>
    <path class="cls-20" d="M141.46,316.14c-.45,1.37-1.64,3.27-3.83,3.34-2.72.1-4.36-2.11-5.07-4.17-.83-2.42-.45-5.15,1.88-6.81,2.19-1.56,4.91-.25,6.27,2.08,1,1.71,1.32,3.84.75,5.56Z"/>
    <path class="cls-20" d="M422.73,176c-1.04,2.7-1.15,5.56-1.33,8.58-.33,5.4-1.71,10.52-4.25,15.03l-.54-.16c1.95-5.83.37-12.03-3.03-17.25,1.82-1.08,3.49-2.02,5-2.99.01,0,.03-.02.04-.03,1.51-.97,2.87-1.97,4.1-3.19Z"/>
    <path class="cls-20" d="M374.92,318.9c-2.48.98-4.74,0-5.45-2.22-1.11-3.52.59-7.43,4.15-8.57,2.19-.69,4.16,1.09,4.58,3.19.6,2.93-.47,5.94-3.29,7.6Z"/>
    <path class="cls-20" d="M91.33,198.59c-5.13-10.51-2.91-20.56-4.47-22.74,2.63,1.75,5.08,4.23,8.74,6.23-3.43,4.6-4.89,10.11-3.88,15.81.08.47-.15.63-.39.69Z"/>
    <path class="cls-20" d="M383.87,334.59c.22,1.27.49,2.62.16,3.9-.89,3.5-3.92,6.44-6.7,5.19-.99-.44-1.87-1.58-1.95-2.98-.16-2.63,1.1-4.86,3.02-6.5s4.11-1.35,5.47.39Z"/>
    <path class="cls-20" d="M133.37,343.68c-3.48.89-5.92-3.36-5.92-6.16,0-2.28.88-3.86,2.83-4.34,1.7-.42,3.24.73,4.41,2.32,1.7,2.3,2.32,7.24-1.33,8.18Z"/>
    <path class="cls-20" d="M129.26,292.53c-.09,1.83-.61,3.52-2.18,4.89-.1.09-.21.18-.32.26-.72.55-1.6.95-2.52.81-.12-.01-.24-.04-.37-.08-.69-.2-1.5-.67-2.13-1.61-.18-.26-.33-.54-.44-.83,0,0,0,0,0-.01-1.26-3.08.69-7.39,4.26-7.84,1.43-.18,2.42.57,3.01,1.6.01.02.03.04.04.05.22.39.38.81.5,1.25.07.25.11.5.13.75.04.27.04.52.03.77Z"/>
    <path class="cls-20" d="M157.38,317.44c-1.46,1.13-3.93.81-5.51-.84-1.15-1.2-1.71-2.55-1.69-4.08.02-1.26.67-2.89,2.25-3.54,2.66-1.12,5.15.68,6.22,3.08.85,1.89.44,4.04-1.28,5.37Z"/>
    <path class="cls-20" d="M360.11,315.03c-.78,1.52-1.94,2.59-3.11,2.97-1.55.52-3.47.2-4.48-1.24-1.52-2.16-.52-4.91,1.29-6.63,1.66-1.57,3.78-2,5.62-.56,1.36,1.06,1.73,3.39.68,5.46Z"/>
    <path class="cls-20" d="M219.43,118.84c-.05.41-.24.79-.52,1.15h0c-1.88,2.31-8.24,3.2-9.19.76-.02-.04-.04-.09-.05-.13-.02-.05-.04-.1-.04-.16-.33-1.63,1.04-2.36,1.88-3.51,2.36-.92,4.7-1.57,7.07-.41.42.74.96,1.38.85,2.3Z"/>
    <polygon class="cls-20" points="324.09 391.93 321.55 395.67 320.67 395.07 312.11 389.24 314.85 386.24 323.19 391.37 324.09 391.93"/>
    <polygon class="cls-20" points="199.62 388.84 190.51 395.19 190.12 395.46 187.53 391.92 188.22 391.5 197.03 386.14 199.62 388.84"/>
    <path class="cls-20" d="M143.62,294.71c-.32,1.41-1.93,2.19-3.27,1.6-2.33-1.03-3.4-3.71-2.75-5.91.08-.29.22-.57.41-.81.35-.45.88-.78,1.5-.82.38-.02.77.01,1.13.13,0,0,.02,0,.03,0,.43.13.84.37,1.18.73,1.19,1.23,2.22,3.05,1.76,5.06Z"/>
    <path class="cls-20" d="M155.46,301.95c-1.35,1.27-4.8-.16-6.45-3.5-.3-.6-.52-1.38-.7-2.06-.03-.13-.07-.26-.1-.38-.16-.6.57-1.99,1.41-1.89.17.07.33.15.5.23.77.4,1.44.93,2.04,1.52.97.96,1.77,2.09,2.56,3.16.2.27.4.52.6.78.57.71.63,1.69.14,2.15Z"/>
    <path class="cls-20" d="M363.15,295.87c-1.07,5.42-6.77,7.97-7.75,5.64-.18-.42.09-1.33.55-1.83l4.43-4.87c.52-.56,1.27-.72,1.83-.55.44.13,1.11.75.94,1.62Z"/>
    <path class="cls-20" d="M373.8,292.23h0c-.16.78-.52,1.61-.98,2.51-.88.95-2.11,1.95-3.03,1.71-1.49-.38-2.44-1.8-1.93-3.38.24-.75.78-1.57.47-2.2.78-.57,1.48-1.2,2.14-1.6,0,0,.01,0,.02,0,.75-.45,1.46-.61,2.21-.08.16.1.29.22.41.35.76.72.91,1.65.68,2.71Z"/>
    <path class="cls-20" d="M372.51,334.19c-.61.98-1.54,1.72-2.26,1.91-1.43.38-2.31-.62-2.65-1.4-.57-1.32-.15-2.51.72-3.49.98-1.11,2.43-1.55,3.4-1.1,1.7.79,1.69,2.63.79,4.08Z"/>
    <path class="cls-20" d="M143.06,335.45c-1.6,1.26-3.14.22-4.08-1.22-.75-1.15-1.08-3.03.73-4.11,1.35-.8,2.78.3,3.42,1.08.9,1.11,1.3,3.16-.07,4.24Z"/>
    <path class="cls-16" d="M354.98,332.65c-.46,1.25-2.18,3.97-3.95,3.21-2.2-.95-.66-4.15.65-5.36.86-.79,1.69-1.36,2.81-.7.66.39,1,1.45.48,2.85Z"/>
    <path class="cls-35" d="M161.35,333.5c0,.45-.13.89-.39,1.29-1.38,2.1-4.01-.37-4.46-2.03-.11-.43-.26-.84-.31-1.24-.05-.41-.01-.81.24-1.2.3-.45.72-1.15,1.92-.84,1.32.34,3.03,2.25,2.99,4.03Z"/>
    <path class="cls-20" d="M193.23,380.61l-7.86,2.42-.39.17-1.15.51c-.71.32-1.54-1.07-1.01-1.31l1.78-.77,7.7-3.33c.58.89.9,1.55.92,2.31Z"/>
    <path class="cls-20" d="M168.76,309.94c-.1.19-.23.38-.4.58-1.23.37-2.31.12-3.3-.76-.72-.64-1.61-1.98-.78-3.16.65-.92,2.03-.72,3.01-.43h0c.3.25.55.54.75.88.52.85.59,1.88.71,2.88Z"/>
    <path class="cls-20" d="M344.76,310.83c-.5.01-.96-.07-1.34-.27-.06-.04-.12-.07-.17-.1-.05-.04-.1-.07-.15-.12-.03-.02-.05-.04-.07-.07-.02-.02-.04-.04-.07-.07-.03-.02-.04-.04-.06-.07-.28-.32-.44-.75-.44-1.3,0-.39.15-.82.4-1.23.02-.04.04-.08.07-.12.37-.56.92-1.07,1.48-1.37.66-.41,2.48-.35,2.84.65.74,2.08-1.26,3.3-2.49,4.06Z"/>
    <path class="cls-24" d="M180.22,402.64l-6.6,8.25-.56-.52,7.45-9.25c.16-.2.64.2.36.59l-.66.93Z"/>
    <path class="cls-3" d="M170.67,389.84c.09-.52.42-.8,1.24-1.2l9.72-4.76c.19-.09.6-.03.78.21-1.27.95-2.66,1.76-4.34,2.5l-7.39,3.25Z"/>
    <path class="cls-39" d="M155.18,400.19l-6.88,5.11s-.04-.19-.12-.33l5.39-4.61c.38-.33.89-.99,1.61-.17Z"/>
    <path class="cls-38" d="M170.67,389.84c-1.07,1.61-3.15,1.93-4.7,2.88-1.19.73-1.96,2.31-3.84,2.03,3.13-2.98,5.9-3.75,8.54-4.91Z"/>
    <path class="cls-34" d="M364.38,405.52c-1.07,1.21-1.37-.24-1.62-.58l-4.65-4.04c2.51.75,4,2.66,6.27,4.62Z"/>
    <path class="cls-27" d="M333.29,403.77c-2.03-1.25-4.24-3.78-5.81-5.32.24-.27.5-.39,1.02-.41l4.79,5.73Z"/>
    <path class="cls-33" d="M343.25,390.6c.98.51,2.62.52,2.8,2.28l-7.68-4.2.38-.44,4.5,2.35Z"/>
    <path class="cls-1" d="M370.95,391.14l-6.8-3.08c.2-.13.31-.32.34-.42l6.56,2.75c.41.42-.02.71-.1.75Z"/>
    <path class="cls-15" d="M147.5,388.06l-4.77,2.38c-1.1.4-1.04-1.57.19-.95l3.7-1.76c.31-.15.69,0,.88.34Z"/>
    <path class="cls-20" d="M338.89,318.87l-.47.1c-.81-.12-1.43-1.02-1.19-1.54.31-.69,1.52-1.52,2.47-.81.58.43-.33,1.85-.81,2.25Z"/>
    <path class="cls-20" d="M173.76,326.53v2.18c-.39.13-1.03-.03-1.11-.35-.06-.27-.04-.94.07-1.46-.46-.67.33-1.34.82-.76h0c.08.1.16.24.21.4Z"/>
    <path class="cls-27" d="M333.29,403.77c.92.37,1.51.58,2.08,1.72-.54.36-1.5.01-1.6-.29l-.48-1.43Z"/>
    <path class="cls-10" d="M94.08,138.75s-.01-.02-.01-.04c.02.01.04.04.07.06-.02,0-.04-.01-.06-.02Z"/>
    <path class="cls-10" d="M311.34,223.63c.1-.04.18-.09.27-.14l-.55.27c.1-.04.18-.08.28-.13Z"/>
    <path class="cls-5" d="M432.76,118.99c-.29-.02.35-.55.24-.8-.03-.06-.07-.1-.11-.16-.04-.05-.09-.1-.13-.14-.02-.02-.05-.04-.07-.07s-.05-.04-.07-.06c-.05-.04-.1-.07-.16-.1-.02-.02-.05-.04-.08-.05-.17-.1-.35-.2-.54-.29-.24-.12-.48-.22-.64-.33-.21-.13-.34-.26-.25-.38h.01v-.02c.03-.16.16-.33.42-.56-2.48-2.43-5.14-4.21-7.92-5.45-.02,0-.04-.01-.07-.03-2.76-1.14-5.75-1.75-8.91-1.88-6.04-.07-11.62.76-16.92,2.27-.04,0-.09.02-.13.04-.01,0-.03,0-.04.01h0c-13.1,4.4-26.29,13.25-36.48,19.72-.06.04-.12.07-.18.11l-6.37,4.2c-2.08,1.37-4.8,2.5-7.09,3.07-.06.01-.12.03-.18.04-.51.14-.99.24-1.43.27h0c-1.96.27-3.25-.07-2.88-1.29-.29.28-.92.89-1.52.73l-10.22-2.62c3.7-2.07,7.09-3.21,10.83-5.51.04-.44-.22-.74-.47-.62l-7.34,3.55c-9.85-6.53-20.15-11.07-30.72-15.09-.3-1.52-1.52,1.37-2.28-1.31-22.98-7.22-58.3-8.71-82.77-1.77h0c-.23.14-8.01,2.01-8.16,2.34-11.23,4.15-23.52,9.39-33.47,16.51l3.6,1.73-10.76,2.74c-1.81,1.46-4.35.46-6.68-.19-1.66-.78-3.25-1.61-4.82-2.49-.02,0-.04-.02-.06-.03-9.62-4.97-21.93-15.06-35.33-21.3-.03-.01-.07-.03-.1-.04-.02,0-.04-.02-.07-.03,0,0,0,0-.01,0-8.36-3.44-18.28-5.94-26.86-4.73-.03,0-.05,0-.08.01-.04,0-.07,0-.1.01-2.65.5-5.3,1.33-7.94,2.56.1.86.24,1.69.41,2.48.07.27.13.52.2.78h0c.82,2.88,2.33,5.54,4.36,7.88.03.03.05.06.08.09,0,.01.02.03.04.04,1.6,1.69,3.54,3.09,5.74,4.18,0,0,0,0,.01,0l5.96,2.15s-.16.18-.29.35c-.47-.02-1.35-.27-2.36-.57-.02,0-.05-.01-.07-.02l-2.86-.69c-.24-.06-.52-.16-.81-.25,0,0-.01,0-.02,0,0,0-.02,0-.03,0-.73-.12-1.34-.13-1.69.06-.06.04-.11.08-.16.13l9.29,3.4c-4.27-.2-7.61-1.03-10.33,1.74,2.36-.65,4.22-1.28,6.3-.16l-6.91,2.1,6.49-.07c-.36.22-1.46.49-2.68.81-.04,0-.08.02-.12.03-1.4.4-2.83.84-4.06,1.59,0,0,0,0,0,0-.33.33-.34.69.13,1.08,0-.01,0-.04.03-.07.01-.03.04-.06.08-.09.03-.02.07-.05.1-.08.03-.03.07-.05.1-.08.04-.02.1-.06.16-.1.1-.06.21-.13.35-.2.28-.15.63-.31,1.04-.49.07-.03.13-.06.2-.08.07-.03.16-.07.24-.1.37-.14.78-.29,1.22-.43.18-.06.36-.12.55-.17.18-.05.35-.1.55-.16,0,0,.02,0,.04,0,.1-.03.21-.06.31-.08.1-.02.19-.05.29-.07h.01c.21-.05.42-.1.64-.14,0,0,.01,0,.01,0,.16-.03.3-.06.47-.09.08-.01.16-.03.24-.04.1-.02.21-.04.33-.06.18-.02.35-.05.54-.08.19-.02.38-.04.58-.07.38-.04.75-.07,1.15-.1.18,0,.36-.01.55-.02.43-.01.86-.01,1.29,0,.44,0,.87.04,1.32.08-1.63.87-3.33.16-4.74,1.2,6.94.01,12.96-.18,18.84,1.91l-7.74-.04,4.08,1.18h.01c1.87.46,3.94.96,5.61,1.57.95.24,1.86.55,2.63,1.37-.03.06-1.46-.08-3.41-.27l-.33-.03-.41-.04-7.9-.64h-.07c-1.11-.04-1.92-.01-2.17.13-.03.04-.05.09-.07.15l15.46,2.51-.36.4-.75-.1-.91-.13-3.27-.44-.68-.09-.76-.1-.7-.09-.69-.09c-1.63-.19-3.27-.38-4.74-.51h-.04l-3.7-.25c-.57-.04-1.8-1.35-2.34.5,6.93.43,13.47,1.7,19.78,4.4-5.07.46-9.24-.39-13.58.45,4.32.21,8.06,1.09,12.1,2.7-3.93.21-7.91.43-11.68,2.39,6.94-.47,13.13-.16,19,2.6-4.22.13-7.75.45-12.05,1.58l8.32,1.79c-3.86,1.03-7.17.48-10.54,2.57,6.73-.42,12.84.44,19.13,2.17-3.79.95-7.12.64-10.58,2.11,3.98-.04,7.14,1.29,11.06,1.71-13.55,8.98-23.12,22.05-29.18,37.82l-1.02-.87c.13.52.61,1.78.41,2.31-.07.18-.13.35-.19.53-.18.5-.35.99-.52,1.49-6.74,19.34-9.94,39.5-7.81,60.29.14,1.35.35,2.71.55,4.06.98,6.79,2.18,13.57,3.75,20.25,1.39,5.89,1.94,12.8,6.12,18.28,10.05,13.2,68.83,28.09,69.89,29.19.06-.21.12-.42.18-.65,0,.08,0,.15,0,.21,2.97-7.63,3.9-14.67,7.84-20.82.48-.75.96-1.5,1.44-2.25.27-.4.52-.81.78-1.21.57-.89,1.15-1.78,1.7-2.68.2-.3.38-.61.57-.91.4-.63.78-1.26,1.16-1.89-.28-.13-.37-.27-.38-.42-.08-.18-.1-.37-.06-.55h0c-.04-.34.15-.58.35-.76,0-.01.01-.02.02-.02.11-.16.24-.27.35-.35l3.15-5.31c.34-.64.66-1.29.94-1.94,2.4-5.88,2.96-12.25,1.27-18.11-.01-.04-.02-.08-.04-.13-1.38-4.45-4.05-8.58-8-11.98-8.03-6.92-17.11-9.22-27.09-16.72l-2.16,3.19c2.02.46,3.89.9,5.53,2.62-2.34,1.45-6.05,1.81-7.32-1.27-3.54.84-7.59.06-7.32-2.04.07-.51.42-.83.9-.95l-4.06-1.13c-2.43.6-4.77.66-5.23-.24-.1-.2-.08-.61.04-1l-3.84-.35c-.53,1.5-1.19,2.89-1.96,4.21l-3.54,10.51c-.3,2.66-1.01,5.26-1.95,7.43-.25.58-.52,1.14-.8,1.65-.04.08-.08.16-.13.23-.15.26-.3.51-.44.75-.3.46-.6.88-.91,1.24-.21.24-.41.46-.63.67-1.17,1.08-2.39,1.43-3.49.67-.31-.21-.59-.47-.83-.75-.07-.07-.13-.14-.18-.21-.68-.81-1.07-1.77-1.23-2.84-.16-1.07-.09-2.25.16-3.5,0-.01,0-.02,0-.04.47-3.1,1.94-6.6,4.04-9.68.69-1.25,1.85-9.39,3.63-12.08.13-.21.27-.41.41-.61,2.3-4.6,6.65-9.55,10.69-14.01.01-.02.04-.05.06-.07,2.53-3.03,5.11-6.05,7.71-9.11v-.04c-.34-.38-.69-.64-1.03-.83-.48-.21-.97-.27-1.39-.42,0,0-.02,0-.03,0-.04,0-.07,0-.11-.01-.3-.03-.38-.13-.44-.3-.1-.25.06-.57.27-.81,0,0,0,0,0-.01.24-.37.61-.65,1.05-.82.04-.02.09-.04.13-.06.32-.13.67-.19,1.1-.18.09,0,.18,0,.27.01.14,0,.28.02.42.05,6.29-15.14,16.53-30.54,30.97-40.34-.23,3.24-.04,6.45.61,9.53.01.09.03.18.05.27,1,3.95,2.8,7.69,5.08,11.15h0s.05.08.08.12l4.79,6.27-4.01.52,4.22,2.44c-.83.67-2,.88-2.65.33-.46-.18-.92-.4-1.52-.44h-.03c-.64.08-1.39.26-2.15.52l6.83,2.74c-.34.37-.62.63-.81.84l-.03.03c-.15.19-.24.37-.22.52.05.09.15.19.26.27,0,0,0,0,.01,0,.1.03.24.06.43.07.37-.33.6-.35,1.05.16.13.16.29.27.47.36.02,0,.04.01.07.03.33.1.73.14,1.06.27,0,0,0,0,0,0,.01,0,.04,0,.06,0,.24.07.42.24.49.5-.21.15-.34.29-.41.41h0c-.04.22.17.43.52.63,0,0,.02,0,.03,0,1.12.4,2.25.89,3.1,1.38,0,0,.01,0,.03.01.79.4,1.4.86,1.37,1.4v.02c0,.07,0,.13-.03.2l1.77,1.35c.05-.1.16-.35.19-.54-.03-.13-.13-.21-.24-.3,0,0-.02-.01-.04-.03-.04-.02-.09-.06-.13-.1-.04-.02-.07-.05-.1-.09-.04-.02-.07-.06-.09-.1-.03-.04-.05-.08-.07-.13-.02-.05-.04-.1-.04-.16-.01-.05-.02-.11-.01-.17,1.38-.1,2.7-.67,2.99-2.02h.02c4.34,2.5,7.75,5.01,10.33,7.6,0,0,0,0,.01.01,5.74,4.85,7.32,10.9,6.65,17.38,0,.15-.03.3-.04.44-.64,6.51-3.67,13.84-8.17,22.48l.15,5.47c-.13.17-.79.18-.96.14.24,5.43-.62,10.64-2.22,15.65-.03.11-.07.22-.1.33-1.88,6.34-4.86,12.37-8.72,17.97-.02.04-.05.08-.08.13-2.96,4.8-6.17,9.45-9.21,13.98-1.57,2.42-2.65,4.94-3.34,7.55,0,0,0,.02,0,.04-.75,3.58-.66,7.29-.81,10.97.04.58.1,1.17.18,1.76.22,1.81-.35,3.57-1.03,5.26-.33,1.35-.78,2.68-1.42,4-.42,1.12-.81,2.22-1.15,3.33-.21,3.41.85,6.37,2.92,9.45l-4.97.75c-.04.33-.07.66-.09.98l5-.61,1.51,4.79-6.58,1.61c.01.29.03.58.06.87l7.05-1.57c.29,1.4.61,2.26,1.23,3.54l-7.58,3.25c.06.3.13.6.19.89l7.7-3.33c.58.89.9,1.55.92,2.31l-7.86,2.42-.39.17c.11.41.22.81.34,1.2l8.62-2.9,2.49,3.75-8.72,5.25c.16.33.33.66.51.98l8.8-5.36,2.59,2.7-9.11,6.35c.21.32.44.63.67.93,3.13-2.44,5.99-5.03,10.04-6.01-1.52,3.58-2.85,6.47-2.53,9.84.12,2.13,1.23,3.78,2.9,4.98h0c1.8.92,3.7,1.63,5.68,2.13,0,0,.01,0,.02,0,3.07.47,6.43.18,9.09-.84l27.55-10.58c3.33-1.28,6.75-3.1,8.81-6,4.11-5.78,1.87-13.55-3.86-17.36-2.59-1.71-4.67-3.81-6.21-6.43-5.36-9.12-16.36-7.33-23.03-17.97-2.49-3.98-3.55-8.6-2.25-12.8q.33-.96.61-1.6c.36-.77,2.21-2.62,2.72-1.62l3.63,7.18c1.72-1.98,3.3-3.44,4.8-4.43.02-.01.04-.03.06-.04,2.89-2.34,6.71-2.61,10.26-1.13h.04c2.48.82,5.19,2.15,8.43,3.53l1.24.52c2.54,1.05,5.1,1.49,7.66,1.36h.04s0,0,.01,0c0,0,.01,0,.02,0,.16-.01.33-.03.48-.04,5.54-.57,10.27-3.79,15.04-5.28h.03s.21-.1.21-.1c3.67-1.54,7.37-.99,10.38,1.22,1.55.98,3.16,2.38,4.86,4.34l3.61-7.01c.53-1.03,2.65,1.41,2.98,2.33.19.59.31,1,.5,1.75.84,4.04-.28,8.11-2.53,11.81-6.68,10.95-17.83,8.71-23.3,18.24-1.47,2.56-3.68,4.63-6.22,6.41-4.82,3.37-7.07,8.93-4.94,14.85.44,1.23,1.15,2.35,2.05,3.34,1.73,1.94,4.15,3.41,6.58,4.36l27.95,10.9c3.22,1.26,7.3,1.62,10.8.98,0,0,.01,0,.02,0,2.08-.6,4.14-1.6,6.13-2.94,0,0,0,0,.01,0,.63-.69,1.09-1.49,1.32-2.42,1-3.87-.39-7.34-2.06-11.23,3.65,1.45,6.36,3.36,9.21,5.54.21-.27.42-.54.63-.81l-8.56-5.83,2.74-3,8.34,5.14c.18-.29.36-.58.54-.88l-8.06-5.03,2.9-4.09,8.43,2.74c.17-.38.34-.78.5-1.17l-8.07-2.59c-.27-.13.11-1.17.54-2.08,2.23,0,4.17,1.11,6.44,1.71-1.64-1.6-3.76-1.76-6.01-2.62l1.09-3.64,8.3,2.45c.09-.36.18-.72.27-1.09l-8.06-1.86,1.41-4.7c2.18.21,3.61-.32,5.49.58.43,0,1.33-.07,2.19.02.03-.23.05-.45.07-.68l-7.73-1.23c2.45-3.67,3.49-7.12,2.68-11.33l4.01.3c-.13-.43-.27-.86-.43-1.28h0s-4.33-.33-4.33-.33c-.73-2.99-2.99-6.13-2.63-9.46.73-6.95-.18-13.23-3.38-19.43-.05-.1-.1-.2-.16-.3l-.1-.15-4.91-7.49-.05-.07c-2.82-4.18-5.78-8.54-8.31-12.96-.1-.18-.21-.35-.3-.52-1.94-3.35-3.61-6.78-4.75-10.4-.03-.05-.04-.1-.05-.16-.09-.24-.16-.48-.23-.73-.01-.04-.03-.08-.04-.13-.13-.42-.24-.84-.35-1.26-.34.21-.69-.16-1.01-.85-.02-.03-.04-.06-.05-.1-.83-1.51-1.25-4.6-1.54-7.9h0c-.3-1.01-.66-1.95-.43-2.96.06-.27.1-.55.14-.82v-.02c-.12-1.7-.23-3.31-.37-4.63v-.03c-.16-.83-.33-1.67-.44-2.54-.84-2.68-1.77-5.24-2.69-7.7,0-.02-.01-.04-.02-.06-1.4-3.34-3.02-7.32-4.06-11.99-.01-.06-.02-.11-.04-.16-.61-2.46-.98-4.84-.92-7.15,0-.2,0-.4,0-.61.18-5.79,2.9-10.84,7.61-14.31,2.53-2.25,5.81-4.5,9.97-6.79l.04-.03h0c.04.14.09.27.13.38.17.4.44.79.75,1.11h0c.19.16.44.29.76.44.18.09.33.16.48.2h0c.36.02.74-.11,1.09-.45.04-.05.1-.1.15-.16.45-.21.92-.41,1.36-.62l.55-.27c.3-.16.6-.32.87-.5.06-.04.11-.08.17-.13.1-.07.2-.15.29-.23.07-.06.14-.12.2-.18.22-.21.41-.46.56-.74.04-.05.07-.1.09-.16.01-.03.03-.06.04-.1.03-.07.06-.13.08-.21.04-.09.07-.18.09-.27,1.38.42,2.27-.58,3.33-1.18-.63-2.45.11-4.18.36-4.05l-.65-.78,2.42-1.63c-.16-.35-.37-.57-.55-.73l-.02-.02c-.16-.1-.3-.16-.38-.23-.06-.05-.07-.16-.05-.3v-.02c-.03-.14.03-.32.2-.58.03-.05.05-.1.09-.14.04-.07.1-.14.14-.18,7.31-6.73,11.22-15.73,11.09-26.08,13.92,9.65,23.94,25.64,29.87,40.08,1.2-.86,1.43.63.96,1.12.61.06,1.14-.01,1.7.45l-2.46,1.75,5.35,6.95.1.12c3.42,4.29,7.71,9.67,10.69,13.89l.12.16,1.49,1.92c.8,1.04,1.49,2.29,1.83,3.53.01.02.02.04.02.07.14.35.2.64.18.84l.97,6.48c1.93,1.99,3.28,4.93,4.02,7.92.01.05.02.1.04.15.73,2.86.87,5.69.39,7.82-.01.07-.03.15-.05.22-.03.13-.06.25-.1.37-.39,1.46-1.09,2.49-2.11,2.79,0,0,0,0-.01,0-.16.07-.34.13-.52.16-1.26.24-2.53-.54-3.33-1.62-5.31-7.18-2.22-16.44-4.7-18.88-.65-.64-1.21-1.35-1.7-2.14-.82-1.31-1.45-2.78-1.96-4.32-.19-.61-.38-1.23-.54-1.86,0-.01,0-.02-.01-.04-1.32-3.81-2.15-7.58-4.04-11.37,0-.02-.02-.04-.04-.07-2.33-4.01-5.45-7.52-8.82-10.3-1.53.58-3.18-.68-3.59.31-.57,1.35,9.22,11.06,2.24,16.78-2.56,2.1-5.14,4.13-7.79,6.05-.39.29-.79.57-1.18.85-.58.41-1.18.83-1.77,1.23-1.23.84-2.49,1.65-3.76,2.43-.64.39-1.28.78-1.93,1.15-.65.38-1.3.75-1.97,1.1-.44.24-.89.48-1.33.71l-10.76,5.58c-8.27,5.23-12.93,11.58-13.47,21.89v.14c0,.32,0,.64.01.95.1,2.8.77,5.2.44,7.98-1.41-1.32-.16.01-1.34.72,6.9,15.03,18.62,25.94,22.47,43.89,1.09,2.16,52.32-21.11,52.61-25.85-.13-1.63-1-5.51-.08-7.17-.18-.31,0-.5.14-.57.62-1.57,1.65-2.79,2.82-3.6.09-.07.18-.13.27-.18.77-.55,1.63-.94,2.56-1.04.4-.05.81-.04,1.23.01.93.13,1.63.61,2.16,1.26,0,0,0,0,.01.01.71.78,1.17,1.96,1.2,3.58,0,.13,0,.27,0,.4,0,.11,0,.22,0,.33,0,.13-.01.25-.03.38,14.28-24.63,16.23-61.03,6.87-92.57-.07.07-.13.14-.19.21l-3.9-11.51c-.4-1.19-.84-2.36-1.32-3.53-.01-.03-.03-.06-.04-.09-6.02-13.68-14.44-25.73-25.15-34.51,1.35-.14,2.25,0,3.13-.58l-1.18-.03h-.21c-.75.02-1.65.03-2.34-.05h-.58c-.11-.09-.2-.16-.27-.24-.13-.07-.19-.17-.18-.29l11.82-.54c-4.23-1.06-8.03-1.52-12.37-1.86-1.12.61-.94-1.13.06-.29,6.98-1.4,13.32-2.31,20.48-2.43-3.66-1.66-7.32-1.82-11.1-1.77,3.36-1.31,6.4-1.56,9.98-2.18-3.46-1.06-6.73-1.3-10.87-1.6,5.25-3.38,11.18-2.93,17.48-2.66-3.1-1.74-6.3-1.7-9.93-2.51,3.67-1.99,7.12-2.03,10.92-2.65l-14.01-.44c5.5-2.56,10.68-3.04,16.33-4.49l-12.56.64c4.43-1.31,9.08-1.85,14.02-1.46.73.05,1.52.78,2.21-.4-5.04-1.18-9.64-1.28-15.03-.8,4-2.67,8.62-1.92,13.42-3.13-4.97-.73-9.66.43-15,.94,7.02-2.78,14.38-3.1,22.06-1.92-.33-.53-.79-1.22-.5-1.62.19-.02.37-.03.55-.03h.02c.54-.16,1.51.04,2.56.38.09.03.18.06.27.09.15.04.3.1.45.16.24.08.47.17.71.27.18.07.37.15.55.23.15.07.3.13.44.2.08.04.16.07.24.11.55.24.99.47,1.26.63-1.57-2.34-4.06-3.19-6.42-4.15,2.86-1,4.65.19,7.01.89-2.23-2.48-5.36-2.79-8.4-1.97l2.17-1.37c-3.59,0-6.08,1.3-9.21.23,3.98-.16,7.69-.77,11.27-2.88-3.26-.16-5.61,1.12-8.17,1.68l-.35-.46c4.04-1.64,7.26-2.37,9.81-2.39,0,0,.02,0,.03,0,3.48-.24,6.33.73,7.38,4.37.04.16.09.32.13.48,0,.01.01.03.01.04.4,1.2.58,2.59.58,4.09v.29c.14,5.8-2.04,11.98-5.11,17.72-.01.04-.04.07-.05.1-2.32,4.71-5.13,8.99-7.79,11.82l-12.39,16.01c4.85,3.76,6.44,9.86,3.75,15.59,1.43-.13,1.78-1.09,2.54-1.83.5,1.35.07,1.8.07,2.51,1.09-.34,1.54.33,2.35.86,3.42,2.25,7.76,1.83,11.34.44-.27-.67.24-.91.44-.86,1.95-5.83.37-12.03-3.03-17.25,1.83-1.08,3.51-2.03,5.03-3.01h.02c17.2-12.59,28.33-44.65,14.13-60.2ZM117.23,283.79c-1.06,1.01-2.3,1.32-3.37,1.16-.75-.12-1.63-.58-2.28-1.32-.18-.21-.35-.44-.5-.69-1.79-3.16-1.12-7.28,1.88-9.59,1.29-.98,3.16-1.1,4.52.09,1.2,1.05,1.87,2.5,2.04,4.04.24,2.22-.55,4.64-2.29,6.3ZM146.61,285.14c-1.17-.92-1.88-2.22-2.11-3.81-.07-.51.09-1.56.72-2,.21-.15.47-.23.81-.2,1.07.11,2.16,1.03,2.88,2.21.6.96.95,2.11.84,3.11-.19,1.74-1.69,1.55-2.25,1.26-.32-.17-.61-.36-.89-.57ZM157.38,317.44c-1.46,1.13-3.93.81-5.51-.84-1.15-1.2-1.71-2.55-1.69-4.08.02-1.26.67-2.89,2.25-3.54,2.66-1.12,5.15.68,6.22,3.08.85,1.89.44,4.04-1.28,5.37ZM168.36,310.53c-1.23.37-2.31.12-3.3-.76-.72-.64-1.61-1.98-.78-3.16.65-.92,2.03-.72,3.01-.43h0c.3.25.55.54.75.88.52.85.59,1.88.71,2.88-.1.19-.23.38-.4.58ZM173.76,326.72v2c-.39.13-1.03-.03-1.11-.35-.06-.27-.04-.94.07-1.46-.46-.67.33-1.34.82-.76h0c.08.1.16.24.21.4v.18ZM174.29,318.58c-.33.37-.81.44-1.26.35-.11-.02-.21-.05-.32-.09-.44-.33-1.26-1.49-.58-2.14.72-.71,1.68-.35,2.28.07.15.1.27.21.37.3-.02.52-.2,1.17-.49,1.49ZM172.16,308.19c.76-.6,2.73-.95,4.15-.18-1.06.81-2.19,1.54-3.73,1.7-.38.04-.65-.3-.7-.69-.05-.3.03-.63.29-.83ZM166.61,299.03c-.52-1.44,3.01-2.8,4.72-1.25-.16,1.39-3.98,3.28-4.72,1.25ZM163.44,281.3c-2.28-.61-4.09-.97-5.77-2.44,4.43-.78,8.21.36,11.65,2.08l-10.58,2.53c-1.36.33-2.24-.64-2.21-1.55.07-2.39,3.41-.35,6.92-.61ZM156.31,290.36c1.26-1.28,3.07,1.39,4.15,1.66l10.32,2.6c-3.12,1.62-6.3-.25-9.19-1.48-1.15.44-2.83,1.29-3.93.52-.82-.56-2.56-2.08-1.36-3.31ZM154.72,299.02c.2.27.4.52.6.78.57.71.63,1.69.14,2.15-1.35,1.27-4.8-.16-6.45-3.5-.3-.6-.52-1.38-.7-2.06-.03-.13-.07-.26-.1-.38-.16-.6.57-1.99,1.41-1.89.17.07.33.15.5.23.02,0,.05,0,.07,0,.87.12,1.46.75,1.97,1.52.97.96,1.77,2.09,2.56,3.16ZM144.17,269.62c1.69-.89,3.81.89,4.95,1.43,1.26.59,2.88.9,4.23,2.49-1.78,1.52-4.01,1.33-6,.84l-1.75-1.4c-.81-.65-2.68-2.7-1.43-3.36ZM140.13,261.03c1.98.54,3.1,4.35,1.29,5.49-1.37.86-2.62-1.24-2.79-2.2-.2-1.14.33-3.37,1.51-3.29ZM137.61,290.4c.08-.29.22-.57.41-.81.35-.45.88-.78,1.5-.82.38-.02.77.01,1.13.13,0,0,.02,0,.03,0,.43.13.84.37,1.18.73,1.19,1.23,2.22,3.05,1.76,5.06-.32,1.41-1.93,2.19-3.27,1.6-2.33-1.03-3.4-3.71-2.75-5.91ZM134.44,308.5c2.19-1.56,4.91-.25,6.27,2.08,1,1.71,1.32,3.84.75,5.56-.45,1.37-1.64,3.27-3.83,3.34-2.72.1-4.36-2.11-5.07-4.17-.83-2.42-.45-5.15,1.88-6.81ZM125.56,288.12c1.43-.18,2.42.57,3.01,1.6.01.02.03.04.04.05.2.28.35.6.44.95.02.1.04.2.06.3.07.25.11.5.13.75.04.27.04.52.03.77-.09,1.83-.61,3.52-2.18,4.89-.1.09-.21.18-.32.26-.72.55-1.6.95-2.52.81-.12-.01-.24-.04-.37-.08-.86-.15-1.66-.73-2.13-1.48-.19-.3-.34-.62-.44-.96,0,0,0,0,0-.01-1.26-3.08.69-7.39,4.26-7.84ZM174.83,157.98l-3.26,3.01c-.54.5-.97.59-1.29.58-1.46-.03-1.44-2.71,1.94-6.24.86-.9,1.86-1.27,2.94-.33.78.67.82,1.91-.33,2.97ZM217.21,319.4c-.61-1.32-1.18-2.7-1.39-4.12.13-.07.3-.24.35-.31l1.36,3.56c.16.41-.08.74-.33.87ZM296.16,314.9c.11,2.04-.49,3.89-2.02,5.1l2.02-5.1ZM301.25,138.83c-.68-.7-.89-1.74-.57-2.44.27-.6,1.01-1.48,2.06-1.66,5.32-.92,11.4,2.82,10.64,5.93-.72,2.93-7.83,2.59-12.14-1.83ZM305.93,157.21c-5.03,1.43-11.92-2.42-10.84-6.55.23-.88,1.07-2.03,2.52-2.47,3.72-1.15,8.25.72,10.2,4.21,1.06,1.89.17,4.23-1.88,4.81ZM307.57,131.21c-.92,3.67-10.35,1.62-11.3-1.47-.24-.76.41-1.88,1.37-2.26,4.54-1.82,10.51,1.43,9.93,3.73ZM285.26,126.5c-2.67,1.33-6.29.35-8.21-1.82-1.07-1.2.04-2.77,1.29-3.3,2.59-1.09,5.29-.61,7.41,1.19,1.12.95,1.29,3.04-.49,3.93ZM281.48,113.97c1.17.53,1.91.81,2.25,1.63.46,1.14-.06,2.14-1.38,2.8-1.83.92-6.52.64-6.9-2.08-.39-2.87,4.12-3.21,6.03-2.34ZM277.89,140.7c.37,2.27-1.89,3.35-3.21,3.68-1.64.41-3.71-.41-4.2-2.3-.53-2.03,1.22-3.48,2.61-3.92,1.74-.55,4.42.15,4.8,2.53ZM272.21,162.37c-1.77.65-3.92-1.55-3.41-3.32s2.72-1.65,3.87-.81c1.19.86,1.39,3.44-.46,4.12ZM272.83,132.49c.06,3.17-2.98,4.4-5.49,4.01-2.79-.44-5.19-2.91-4.12-5.65.87-2.22,3.19-3.08,5.41-2.61,1.63.35,4.15,1.6,4.2,4.26ZM261.17,146c-.1-1.57.14-2.33,1.37-2.96.98-.5,1.94-.43,3.21.74,1.28,1.19,2.93,4.08.92,5.83-2.19,1.91-5.35-1.2-5.51-3.61ZM263.59,160.1c-1.87.79-3.06-1.15-3.61-2.49-.76-1.81-.43-4.23,1.97-4.52,1.54-.18,2.54,1.72,2.93,2.72.5,1.31.61,3.49-1.28,4.29ZM263.79,115.13c2.11,0,5.11,1.38,4.68,4.21-.41,2.66-3.19,3.24-5.2,2.94-1.45-.21-4.05-1.55-3.95-3.62.11-2.45,2.69-3.53,4.48-3.53ZM258.88,124.62c1.96.64,3.58,2.92,2.96,4.99-.45,1.48-1.94,1.09-2.52.64-1.55-1.21-1.5-4.32-.44-5.63ZM256.11,142.07c-.29-.06-2.34-3.05-2-5.1.16-.96.84-3.14,2.22-2.92,2.39,1.12,2.56,5.12,1.28,7.23-.48.79-1.2.84-1.5.79ZM256.04,153.22c-1.64-2.72-1.68-5.89-.04-8.64,1.86,2.44,2,5.88.04,8.64ZM255.91,122.19c.83-.13,1.6,1.38,1.66,2.07.07.78-.67,2.54-1.41,2.32-1.05-.32-1.44-1.28-1.63-1.82-.29-.84.08-2.36,1.37-2.57ZM252.03,130.62c-.88.36-1.8-.6-1.99-1.09-.63-1.62,1.09-4.69,3.53-5.46,1.74,2.06.97,5.52-1.54,6.55ZM247.51,154.66c.75-.98,1.64-1.69,2.52-1.52,1.28.26,2.17,1.02,2.06,3.03-.1,1.76-1.45,4.51-3.33,4.07-2.5-.58-2.56-3.89-1.26-5.59ZM245.47,149.72c-1.47-1.18-.93-3.24-.35-4.44.67-1.37,2.28-3.08,4.01-2.64,2.1.55,2.49,2.62,1.7,4.53-.92,2.24-3.39,4.12-5.35,2.55ZM247.39,115.17c2.08-.24,5.23.77,5.17,3.67-.05,2.51-2.92,3.47-4.66,3.47-1.86,0-4.31-.89-4.52-3.25-.21-2.39,2.2-3.68,4-3.88ZM243.03,128.24c2.6-.56,5.56.42,5.93,3.47.31,2.53-2.29,4.29-4.09,4.65-2.3.47-5.25-.52-5.8-3.09-.58-2.68,2.05-4.63,3.95-5.03ZM243.06,159.32c-.06,1.23-.62,2.24-2.05,2.88-1.75.81-2.9-.72-2.87-2.33.03-1.37,1.46-2.26,3.07-2.27,1.06,0,1.88.84,1.85,1.71ZM241.36,140.8c.41,1.62-.72,2.81-1.52,3.25-2.25,1.28-5.66-.52-5.93-2.82-.13-1.19.58-2.22,1.86-2.87,1.91-.97,4.98,0,5.59,2.45ZM231.53,113.69c1.6-.2,4.57.09,4.63,2.36.04,2.31-2.79,2.66-4.12,2.73-1.44.07-3.89-.45-3.96-2.38-.07-2.05,2.2-2.55,3.45-2.7ZM226.12,122.74c3.01-3.01,8.48-2.15,9.04.48.17.81-.29,1.57-1.01,2.14-3.24,2.56-7.92,2.03-8.68-.24-.23-.69-.02-1.71.65-2.39ZM215.03,128.45c1.69,2.39-4.39,6.09-9.98,4.3-.77-.25-1.06-1.04-1.21-1.43-1.13-2.77,8.62-6.53,11.2-2.87ZM216.69,150.36c.41.9.21,2.56-.75,3.67-3.51,4.06-10.53,4.97-12.15,1.3-.41-.95-.2-2.5.58-3.47,2.41-3.01,6.55-4.87,10.17-3.62,1.08.37,1.85,1.45,2.15,2.11ZM209.42,134.73c.87.17,1.46.89,1.74,1.49,1.77,3.77-9.82,8.86-12.19,4.89-1.69-2.83,4.63-7.49,10.45-6.38ZM198.37,184.55c-.38.28-.95-.25-.53-.97.39-.67.73-.08.83.05.28.4.07.65-.3.92ZM190.32,149.83c-.01-2.26.07-4.15,1.17-6.21,1.13,2.1.54,4.53-1.17,6.21ZM187.02,133.38c-1.74-2.36,3.55-7.75,9.66-7.41.81.04,1.4.7,1.73,1.03,2.7,2.76-9.12,9.46-11.39,6.38ZM195.82,176.05l1.47,4.05c.18.47-.19.82-.37.86-.83-1.01-1.43-3.38-1.1-4.91ZM210.89,193.55c-1.29,7.12-3.18,14.07-6.13,20.58-.68,1.51-1.17,2.28-.56,4.08-6.09-6.66-8.65-16.17-6.69-25.02,1.26-5.66,5.36-9.73,10.26-12.89,2.99,3.77,4.01,8.41,3.13,13.26ZM217.62,167.89c-1.88,3.45-5.87,5.88-10.05,5.24-2.79-.44-3.78-3.21-2.68-5.37,2.86-5.59,10.62-6.83,12.62-3.47.61,1.03.8,2.32.1,3.61ZM209.72,120.75s-.04-.09-.05-.13c-.02-.05-.04-.1-.04-.16-.33-1.63,1.04-2.36,1.88-3.51,2.36-.92,4.7-1.57,7.07-.41.42.74.96,1.38.85,2.3.94.15.53.62-.52,1.15h0c-1.88,2.31-8.24,3.2-9.19.76ZM218.92,137.51c-.44-2.86,2.61-4.72,5.17-5.17,1.71-.3,4.06.16,4.19,2.1.16,2.42-2.11,3.79-4.32,4.61-1.86.69-4.72.65-5.04-1.54ZM230.69,174.8c-1.81,2.39-5.41,3.26-7.22.72-1.71-2.39.04-5.31,2.33-6.51,1.88-.98,3.81-.9,5.09.51,1.32,1.45,1.24,3.38-.2,5.28ZM230.28,159.64c-.55-.89.22-1.63,1.14-2.08.7-.35,1.43.33,1.71.95.25.56-.5,1.49-1.01,1.8-.78.47-1.45-.04-1.84-.67ZM233.59,192.83c-.51.35-.95.13-1.18-.16-.36-.45-.15-1.02.52-1.24.46-.16.69.19.81.35.28.38.1.86-.16,1.04ZM235.8,150.54c-.28,3.12-5.77,5.31-9.66,3.19-.98-.53-1.65-1.35-1.81-2.33-.13-.81.14-1.88.92-2.73,2.19-2.39,5.72-3.07,8.54-1.54,1.33.73,2.14,2.04,2.02,3.41ZM236.91,170.47c-.96-1.38-.58-2.98.62-4.02,1.28-1.1,3.1-.74,3.8.32.99,1.49.58,3.29-1.06,4.38-1.33.89-2.84.07-3.36-.68ZM241.98,188.4c-1.87-.41-2.36-2.43-1.95-3.85.33-1.14,1.48-2.73,3.19-2.48,1.72.25,2.48,2.07,2.22,3.49-.24,1.34-1.38,3.31-3.45,2.85ZM246.99,211.26c-.32.91-1.21,2.65-2.82,1.93-1.38-.62-1.03-2.19-.62-3.07.33-.69,1-1.97,2.22-1.58,1.23.38,1.58,1.7,1.23,2.73ZM247.9,199.77c-.31,1.32-1.54,2.8-3.07,2.03-1.12-.57-1.26-1.97-1.05-3.06.17-.85.86-2.25,2.2-2.58.99-.25,1.68.68,1.93,1.18.39.78.2,1.53,0,2.43ZM248.44,178.22c-.41,1.21-1.35,2.71-3.02,2.19-1.43-.46-1.54-2.33-1.19-3.54.26-.89,1.32-2.51,3.01-1.9,1.52.55,1.47,2.4,1.2,3.25ZM248.77,168.63c.25-1.03,1.06-2.73,2.65-2.7,1.21.03,1.66,1.33,1.47,2.6-.24,1.63-1.19,3.75-2.91,3.36-1.35-.32-1.48-2.16-1.21-3.26ZM251.5,188.12c1.74.1,1.29,4.48-.71,4.35-1.49-.1-1.06-4.43.71-4.35ZM258.83,270.62c-1.05-.44-1.93-.82-3.1-.64-2.31.35-4.77-2.23-4.04-4.55,1.51-4.77,2.96-9.34,3.1-14.49.16-6.01.12-11.86.92-17.5-.6-6.79-2.62-13.52-2.54-20.81.15-15.28.93-30.1,2.73-45.63l2.14,22.14.69,14.77c.72,15.6-2.6,25.39-2.28,29.53.41,5.39.8,10.74.75,16.44-.13,12.56,6.32,17.8,1.64,20.75ZM261.42,192.85c-1.63-1.37-1.88-3.52-.8-5.2,1.77,1.18,2.17,3.07.8,5.2ZM261.66,171.83c-1.99,0-3.1-3.94-1.81-5.42.9-1.03,2.02-.21,2.77.95.92,1.4,1.06,4.49-.96,4.47ZM265.12,174.87c1.69-.3,2.7,1.27,2.91,2.52.17.99-.54,3.27-1.76,3.42-1.66.19-2.34-1.6-2.68-2.49-.45-1.21-.1-3.15,1.52-3.45ZM265.71,196.24c1.47-.38,2.31,1.13,2.56,2.03.3,1.11.36,3-1.26,3.56-1.68.58-2.57-1.19-2.82-2.09-.38-1.3-.18-3.07,1.52-3.5ZM267.98,213.26c-1.26.68-2.42-.79-2.74-1.51-.5-1.09-.27-2.79,1.17-3.24,1.17-.36,1.9.93,2.19,1.62.35.85.78,2.37-.62,3.13ZM270.04,188.51c-1.94.27-3.02-1.6-3.27-2.96-.3-1.57.91-3.57,2.65-3.49,1.8.07,2.64,1.82,2.82,2.99.2,1.36-.57,3.23-2.19,3.46ZM274.04,171.39c-1.68.41-3.05-.88-3.5-1.85-.51-1.11.15-3.03,1.69-3.57,1.54-.53,2.92.61,3.47,1.89.43,1.01.15,3.08-1.66,3.53ZM276.02,150.53c-.13-1.04.51-2.48,1.57-3.15,3.05-1.91,7.24-1.16,9.39,1.77,1.11,1.51.55,3.56-1.29,4.45-4.09,1.99-9.28.22-9.67-3.07ZM279.35,192.76c-.38.27-.95-.25-.53-.97.39-.68.74-.08.84.05.28.4.07.64-.3.92ZM279.08,160.1c-.57-.71-.45-2.01.41-2.54.69-.43,1.72-.23,2.31.37.56.58.24,1.6-.5,2.25-.59.53-1.68.61-2.22-.08ZM288.4,175.5c-1.15,1.69-3.2,1.93-5.15.95-2.32-1.18-3.81-3.81-2.59-6.27.64-1.29,2.15-1.8,3.33-1.79,1.41.02,2.76.75,3.91,2.11,1.35,1.59,1.46,3.61.51,5ZM291.34,139.09c-2.85.82-6-.67-7.6-3.01-.47-.67-.38-1.79-.04-2.38,1.35-2.42,6.58-1.88,8.85,1.75.78,1.25.52,3.14-1.2,3.64ZM293.41,120.41c-.81-.69-1.24-1.72-.85-2.59.26-.58,1.01-1.37,2-1.67,3.54-1.09,8.15,1.3,7.82,4.32-.27,2.48-5.68,2.71-8.96-.05ZM294.26,167.81c-1.09-2.14.27-4.6,2.52-5.13,4.18-.99,8.94,1.48,10.57,5.57.87,2.19-.52,4.44-2.88,4.8-4.12.63-8.37-1.64-10.21-5.24ZM308.83,217.2c-.78-.97-.38-2.08-1.2-2.84-2.9-6.74-5-13.63-6.25-20.85-.84-4.83-.05-9.48,3.15-13.37,4.86,3.07,9.07,7.15,10.28,12.89,1.79,8.43-.47,17.4-5.97,24.17ZM313.82,184.58c.05-.75.5-1.42.85-2.02.59.81.41,1.86-.85,2.02ZM321.86,150.93c-1.72-1.95-2.84-4.7-1.31-7.41,1.03,2.39,1.43,4.67,1.31,7.41ZM322.75,134.18c-5.28-.36-10.86-4.49-10.07-6.54,1.22-3.16,9.11-1.65,12.03,3.43.77,1.33-.38,3.22-1.97,3.11ZM341.23,161.64c-2.27-1.3-4.09-2.79-5.37-5-.59-1.03.72-2.79,1.98-2.42,2,.59,5.43,5.26,3.39,7.42ZM347.73,294.65c-2.14.4-4.15,1.44-6.72.37,2.34-1.18,4.78-1.8,7.27-1.83-.65.45-.72,1.26-.55,1.46ZM335.83,307.69c1.04-.34,3.2-.28,3.7,1.32-.46,1.26-3.61.08-3.7-1.32ZM338.42,318.97c-.81-.12-1.43-1.02-1.19-1.54.31-.69,1.52-1.52,2.47-.81.58.43-.33,1.85-.81,2.25l-.47.1ZM339.72,297.75c1.09-.16,2.5-.92,3.82-.21l1.17.62c.38.21.72,1.18.18,1.39-1.76.67-3.3-.41-5.17-1.8ZM342.04,281.15c3.94-1.77,7.57-2.79,11.88-2.14-.97,1.26-2.39,1.26-4.09,1.8l4.5.04c.86,0,1,1.46.6,2.01-.29.4-.77,1.09-1.74.86l-11.15-2.57ZM367.79,270.52c-.28,2.05-2.08,3.16-3.49,3.89-.71.38-1.49.55-2.25.55-1.35,0-2.71-.54-3.75-1.47,2.78-2.12,6.62-3.84,8.45-3.84.72,0,1.12.26,1.04.86ZM371.55,260.09c1.2,1.04,1.85,1.9,1.97,2.67.35,2.2-1.8,4.58-2.56,4.61-.37.01-.68-.11-.92-.35-1.04-1.04-.79-4.21,1.52-6.93ZM367.31,254.95c0,.06,0,.12-.01.18-.05.44-.84,1.25-1.76,1.07l-6.4-1.21c4.03-1.92,8.17-2.02,8.17-.04ZM347.02,259.49l9.52-2.43c.09-.02.18-.03.28-.03.93,0,2.29.88,2.08,1.52-3.48,3.19-7.75-.75-8.72,1.12-.13.26-.18.67.8,1.47-1.69,1.62-4.4,1.3-6.85.35.17-.35.37-.62.58-.85.64-.68,1.44-.92,2.31-1.15ZM338.87,328.7c-.13-.03-.23-.06-.33-.1-.29-.11-.47-.28-.58-.47-.21-.3-.3-.67-.27-1.03,0,0,0-.01,0-.02-.05-.56.21-.91.56-1.09,0,0,0,0,.01,0,.25-.18.58-.24.96-.11.41,1.07-.1,1.89-.35,2.84ZM344.76,310.83c-.55.03-1-.07-1.34-.27-.06-.02-.12-.06-.17-.1-.05-.04-.1-.07-.15-.12-.03-.02-.05-.04-.07-.07-.02-.02-.04-.04-.07-.07-.03-.02-.04-.04-.06-.07-.28-.32-.44-.75-.44-1.3,0-.39.15-.82.4-1.23.02-.04.04-.08.07-.12.31-.58.82-1.09,1.48-1.37.66-.41,2.48-.35,2.84.65.74,2.08-1.26,3.3-2.49,4.06ZM352.38,290.99c1.34-1.35,2.11-.43,3.12-.36.19,1.44-.61,2.32-1.49,2.93-1.1.77-1.88.38-3.09.13-.29-1.44.79-2.03,1.46-2.7ZM360.11,315.03c-.78,1.52-1.94,2.59-3.11,2.97-1.55.52-3.47.2-4.48-1.24-1.52-2.16-.52-4.91,1.29-6.63,1.66-1.57,3.78-2,5.62-.56,1.36,1.06,1.73,3.39.68,5.46ZM363.15,295.87c-1.07,5.42-6.77,7.97-7.75,5.64-.18-.42.09-1.33.55-1.83l4.43-4.87c.52-.56,1.27-.72,1.83-.55.44.13,1.11.75.94,1.62ZM362.45,285.99c-1.14-.95-1-2.53-.3-3.95.08-.16.16-.33.26-.49.05-.09.1-.18.16-.27.69-1.11,1.7-1.99,2.66-2.22.08-.01.16-.03.23-.03,1.01,0,1.75,1.54,1.57,2.28-.15.57-.27,1.37-.58,2.03h0c-.07.16-.15.3-.24.43-.86,1.21-2.27,2.23-3.75,2.21ZM367.87,293.06c.24-.75.78-1.57.47-2.2.75-.8,1.48-1.32,2.14-1.6,0,0,.01,0,.02,0,.75-.45,1.46-.61,2.21-.08.16.1.29.22.41.35.76.72.91,1.65.68,2.71h0c-.12.77-.43,1.61-.98,2.51-.88.95-2.11,1.95-3.03,1.71-1.49-.38-2.44-1.8-1.93-3.38ZM374.92,318.9c-2.48.98-4.74,0-5.45-2.22-1.11-3.52.59-7.43,4.15-8.57,2.19-.69,4.16,1.09,4.58,3.19.6,2.93-.47,5.94-3.29,7.6ZM392.22,274.16c.79-.94,1.92-1.4,2.86-1.51,1.25-.13,2.39.55,3.25,1.63,2.96,3.79,1.09,9.78-2.25,10.55-1.78.41-3.37-.39-4.31-1.88-1.69-2.68-1.64-6.35.44-8.8ZM389.45,292.25c.32,2.59-.95,5.2-3.23,5.35-.22.02-.45.01-.69-.01-2.23-.3-3.16-2.64-3.37-4.25-.03-.25-.05-.5-.06-.77-.03-1.89.77-3.95,2.88-4.49,2.32-.6,4.17,1.74,4.47,4.18Z"/>
    <path class="cls-10" d="M141.41,266.52c-1.37.86-2.62-1.24-2.79-2.2-.2-1.14.33-3.37,1.51-3.29,1.98.54,3.1,4.35,1.29,5.49Z"/>
    <path class="cls-10" d="M153.35,273.54c-1.78,1.52-4.01,1.33-6,.84l-1.75-1.4c-.81-.65-2.68-2.7-1.43-3.36,1.69-.89,3.81.89,4.95,1.43,1.26.59,2.88.9,4.23,2.49Z"/>
    <path class="cls-10" d="M167.78,261.22c-2.34,1.45-6.05,1.81-7.32-1.27-3.54.84-7.59.06-7.32-2.04.07-.51.42-.83.9-.95l-4.06-1.13c-2.43.6-4.77.66-5.23-.24-.1-.2-.08-.61.04-1l-3.84-.35c-1.15,3.28-2.95,6.05-5.12,8.56,3-3.56,4.56-7.41,5.9-11.29,0-.01,0-.04.01-.05,1.29-3.77,2.38-7.58,4.38-11.22.69-1.26,1.49-2.5,2.43-3.71.43-.55.89-1.08,1.38-1.61.17-.17.34-.35.51-.52,1.26-1.27,2.73-2.51,4.47-3.69.64.69,1.4.62,3.02.78-2.03,3.26-3.46,5.79-4.32,7.86h0c-1.85,4.41-1.1,6.7,1.93,9.42,1.87,1.68,4.61,3.52,8.14,6.12l.72.53-2.16,3.19c2.02.46,3.89.9,5.53,2.62Z"/>
    <path class="cls-10" d="M169.31,280.94l-10.58,2.53c-1.36.33-2.24-.64-2.21-1.55.07-2.39,3.41-.35,6.92-.61-2.28-.61-4.09-.97-5.77-2.44,4.43-.78,8.21.36,11.65,2.08Z"/>
    <path class="cls-10" d="M173.76,326.53v.18c-.07-.19-.14-.38-.21-.58.08.1.16.23.21.39Z"/>
    <path class="cls-10" d="M174.78,317.09c-.02.52-.2,1.17-.49,1.49-.33.37-.81.44-1.26.35.65-.62,1.52-1.19,1.38-2.15.15.1.27.21.37.3Z"/>
    <path class="cls-10" d="M180.24,341.9c.05-.14.11-.29.17-.43-.02.16-.07.3-.17.43Z"/>
    <path class="cls-10" d="M199.5,284.1c-1.38-4.45-4.05-8.58-8-11.98,4.08,3.41,6.68,7.55,8,11.98Z"/>
    <path class="cls-10" d="M193.8,309.96c-.16.21-.3.48-.35.75-.04-.33.15-.57.35-.75Z"/>
    <path class="cls-10" d="M193.9,311.69c-.28-.13-.37-.27-.38-.42.07.16.19.3.38.42Z"/>
    <path class="cls-10" d="M198.27,302.34c-1.03,2.54-2.4,4.97-4.09,7.24l3.15-5.31c.34-.64.66-1.29.94-1.94Z"/>
    <path class="cls-20" d="M367.03,281.32c-.15.57-.27,1.37-.58,2.03h0c-.07.16-.15.3-.24.43-.86,1.21-2.27,2.23-3.75,2.21-1.03-1-.93-2.56-.3-3.95.08-.16.16-.33.26-.49.05-.09.1-.18.16-.27.69-1.11,1.7-1.99,2.66-2.22.08-.01.16-.03.23-.03,1.01,0,1.75,1.54,1.57,2.28Z"/>
    <path class="cls-20" d="M354.01,293.56c-1.1.77-1.88.38-3.09.13-.29-1.44.79-2.03,1.46-2.7,1.34-1.35,2.11-.43,3.12-.36.19,1.44-.61,2.32-1.49,2.93Z"/>
    <path class="cls-20" d="M174.78,317.09c-.02.52-.2,1.17-.49,1.49-.33.37-.81.44-1.26.35-.11-.02-.21-.05-.32-.09-.44-.33-1.26-1.49-.58-2.14.72-.71,1.68-.35,2.28.07.15.1.27.21.37.3Z"/>
    <path class="cls-20" d="M338.87,328.7c-.13-.03-.23-.06-.33-.1-.29-.11-.47-.28-.58-.47-.16-.26-.2-.57-.25-.86,0-.06-.02-.12-.02-.17,0,0,0-.01,0-.02-.05-.56.21-.91.56-1.09,0,0,0,0,.01,0,.3-.15.66-.18.96-.11.41,1.07-.1,1.89-.35,2.84Z"/>
    <path class="cls-20" d="M210.89,193.55c-1.29,7.12-3.18,14.07-6.13,20.58-.68,1.51-1.17,2.28-.56,4.08-6.09-6.66-8.65-16.17-6.69-25.02,1.26-5.66,5.36-9.73,10.26-12.89,2.99,3.77,4.01,8.41,3.13,13.26Z"/>
    <path class="cls-20" d="M308.83,217.2c-.78-.97-.38-2.08-1.2-2.84-2.9-6.74-5-13.63-6.25-20.85-.84-4.83-.05-9.48,3.15-13.37,4.86,3.07,9.07,7.15,10.28,12.89,1.79,8.43-.47,17.4-5.97,24.17Z"/>
    <path class="cls-20" d="M256.45,233.43h-.73c-.6-6.79-2.62-13.52-2.54-20.81.15-15.28.93-30.1,2.73-45.63l2.14,22.14.69,14.77c.72,15.6-2.6,25.39-2.28,29.53Z"/>
    <path class="cls-26" d="M258.83,270.62c-1.05-.44-1.93-.82-3.1-.64-2.31.35-4.77-2.23-4.04-4.55,1.51-4.77,2.96-9.34,3.1-14.49.16-6.01.12-11.86.92-17.5h.73c.41,5.39.8,10.74.75,16.44-.13,12.56,6.32,17.8,1.64,20.75Z"/>
    <path class="cls-20" d="M217.62,167.89c-1.88,3.45-5.87,5.88-10.05,5.24-2.79-.44-3.78-3.21-2.68-5.37,2.86-5.59,10.62-6.83,12.62-3.47.61,1.03.8,2.32.1,3.61Z"/>
    <path class="cls-20" d="M304.46,173.05c-4.12.63-8.37-1.64-10.21-5.24-1.09-2.14.27-4.6,2.52-5.13,4.18-.99,8.94,1.48,10.57,5.57.87,2.19-.52,4.44-2.88,4.8Z"/>
    <path class="cls-20" d="M305.93,157.21c-5.03,1.43-11.92-2.42-10.84-6.55.23-.88,1.07-2.03,2.52-2.47,3.72-1.15,8.25.72,10.2,4.21,1.06,1.89.17,4.23-1.88,4.81Z"/>
    <path class="cls-20" d="M215.95,154.04c-3.51,4.06-10.53,4.97-12.15,1.3-.41-.95-.2-2.5.58-3.47,2.41-3.01,6.55-4.87,10.17-3.62,1.08.37,1.85,1.45,2.15,2.11.41.9.21,2.56-.75,3.67Z"/>
    <path class="cls-20" d="M117.23,283.79c-1.06,1.01-2.3,1.32-3.37,1.16-.75-.12-1.63-.58-2.28-1.32-.18-.21-.35-.44-.5-.69-1.79-3.16-1.12-7.28,1.88-9.59,1.29-.98,3.16-1.1,4.52.09,1.2,1.05,1.87,2.5,2.04,4.04.24,2.22-.55,4.64-2.29,6.3Z"/>
    <path class="cls-20" d="M396.08,284.84c-1.78.41-3.37-.39-4.31-1.88-1.69-2.68-1.64-6.35.44-8.8.79-.94,1.92-1.4,2.86-1.51,1.25-.13,2.39.55,3.25,1.63,2.96,3.79,1.09,9.78-2.25,10.55Z"/>
    <path class="cls-20" d="M313.38,140.66c-.72,2.93-7.83,2.59-12.14-1.83-.68-.7-.89-1.74-.57-2.44.27-.6,1.01-1.48,2.06-1.66,5.32-.92,11.4,2.82,10.64,5.93Z"/>
    <path class="cls-20" d="M198.97,141.11c-1.69-2.83,4.63-7.49,10.45-6.38.87.17,1.46.89,1.74,1.49,1.77,3.77-9.82,8.86-12.19,4.89Z"/>
    <path class="cls-20" d="M235.8,150.54c-.28,3.12-5.77,5.31-9.66,3.19-.98-.53-1.65-1.35-1.81-2.33-.13-.81.14-1.88.92-2.73,2.19-2.39,5.72-3.07,8.54-1.54,1.33.73,2.14,2.04,2.02,3.41Z"/>
    <path class="cls-20" d="M285.69,153.61c-4.09,1.99-9.28.22-9.67-3.07-.13-1.04.51-2.48,1.57-3.15,3.05-1.91,7.24-1.16,9.39,1.77,1.11,1.51.55,3.56-1.29,4.45Z"/>
    <path class="cls-20" d="M272.83,132.49c.06,3.17-2.98,4.4-5.49,4.01-2.79-.44-5.19-2.91-4.12-5.65.87-2.22,3.19-3.08,5.41-2.61,1.63.35,4.15,1.6,4.2,4.26Z"/>
    <path class="cls-20" d="M244.87,136.36c-2.3.47-5.25-.52-5.8-3.09-.58-2.68,2.05-4.63,3.95-5.03,2.6-.56,5.56.42,5.93,3.47.31,2.53-2.29,4.29-4.09,4.65Z"/>
    <path class="cls-20" d="M322.75,134.18c-5.28-.36-10.86-4.49-10.07-6.54,1.22-3.16,9.11-1.65,12.03,3.43.77,1.33-.38,3.22-1.97,3.11Z"/>
    <path class="cls-20" d="M187.02,133.38c-1.74-2.36,3.55-7.75,9.66-7.41.81.04,1.4.7,1.73,1.03,2.7,2.76-9.12,9.46-11.39,6.38Z"/>
    <path class="cls-20" d="M230.69,174.8c-1.81,2.39-5.41,3.26-7.22.72-1.71-2.39.04-5.31,2.33-6.51,1.88-.98,3.81-.9,5.09.51,1.32,1.45,1.24,3.38-.2,5.28Z"/>
    <path class="cls-20" d="M288.4,175.5c-1.15,1.69-3.2,1.93-5.15.95-2.32-1.18-3.81-3.81-2.59-6.27.64-1.29,2.15-1.8,3.33-1.79,1.41.02,2.76.75,3.91,2.11,1.35,1.59,1.46,3.61.51,5Z"/>
    <path class="cls-20" d="M386.22,297.6c-.22.02-.45.01-.69-.01-2.23-.3-3.16-2.64-3.37-4.25-.03-.25-.05-.5-.06-.77-.03-1.89.77-3.95,2.88-4.49,2.32-.6,4.17,1.74,4.47,4.18.32,2.59-.95,5.2-3.23,5.35Z"/>
    <path class="cls-20" d="M205.05,132.75c-.77-.25-1.06-1.04-1.21-1.43-1.13-2.77,8.62-6.53,11.2-2.87,1.69,2.39-4.39,6.09-9.98,4.3Z"/>
    <path class="cls-20" d="M307.57,131.21c-.92,3.67-10.35,1.62-11.3-1.47-.24-.76.41-1.88,1.37-2.26,4.54-1.82,10.51,1.43,9.93,3.73Z"/>
    <path class="cls-20" d="M252.57,118.84c-.05,2.51-2.92,3.47-4.66,3.47-1.86,0-4.31-.89-4.52-3.25-.21-2.39,2.2-3.68,4-3.88,2.08-.24,5.23.77,5.17,3.67Z"/>
    <path class="cls-20" d="M268.46,119.34c-.41,2.66-3.19,3.24-5.2,2.94-1.45-.21-4.05-1.55-3.95-3.62.11-2.45,2.69-3.53,4.48-3.53,2.11,0,5.11,1.38,4.68,4.21Z"/>
    <path class="cls-20" d="M223.97,139.04c-1.86.69-4.72.65-5.04-1.54-.44-2.86,2.61-4.72,5.17-5.17,1.71-.3,4.06.16,4.19,2.1.16,2.42-2.11,3.79-4.32,4.61Z"/>
    <path class="cls-20" d="M291.34,139.09c-2.85.82-6-.67-7.6-3.01-.47-.67-.38-1.79-.04-2.38,1.35-2.42,6.58-1.88,8.85,1.75.78,1.25.52,3.14-1.2,3.64Z"/>
    <path class="cls-20" d="M302.37,120.46c-.27,2.48-5.68,2.71-8.96-.05-.81-.69-1.24-1.72-.85-2.59.26-.58,1.01-1.37,2-1.67,3.54-1.09,8.15,1.3,7.82,4.32Z"/>
    <path class="cls-20" d="M285.26,126.5c-2.67,1.33-6.29.35-8.21-1.82-1.07-1.2.04-2.77,1.29-3.3,2.59-1.09,5.29-.61,7.41,1.19,1.12.95,1.29,3.04-.49,3.93Z"/>
    <path class="cls-20" d="M234.15,125.36c-3.24,2.56-7.92,2.03-8.68-.24-.23-.69-.02-1.71.65-2.39,3.01-3.01,8.48-2.15,9.04.48.17.81-.29,1.57-1.01,2.14Z"/>
    <path class="cls-20" d="M250.82,147.17c-.92,2.24-3.39,4.12-5.35,2.55-1.47-1.18-.93-3.24-.35-4.44.67-1.37,2.28-3.08,4.01-2.64,2.1.55,2.49,2.62,1.7,4.53Z"/>
    <path class="cls-20" d="M239.83,144.05c-2.25,1.28-5.66-.52-5.93-2.82-.13-1.19.58-2.22,1.86-2.87,1.91-.97,4.98,0,5.59,2.45.41,1.62-.72,2.81-1.52,3.25Z"/>
    <path class="cls-20" d="M274.68,144.38c-1.64.41-3.71-.41-4.2-2.3-.53-2.03,1.22-3.48,2.61-3.92,1.74-.55,4.42.15,4.8,2.53.37,2.27-1.89,3.35-3.21,3.68Z"/>
    <path class="cls-20" d="M167.78,261.22c-2.34,1.45-6.05,1.81-7.32-1.27-3.54.84-7.59.06-7.32-2.04.07-.51.42-.83.9-.95.33-.08.72-.08,1.11,0l7.11,1.64c2.02.46,3.89.9,5.53,2.62Z"/>
    <path class="cls-20" d="M266.68,149.61c-2.19,1.91-5.35-1.2-5.51-3.61-.1-1.57.14-2.33,1.37-2.96.98-.5,1.94-.43,3.21.74,1.28,1.19,2.93,4.08.92,5.83Z"/>
    <path class="cls-20" d="M354.93,282.86c-.29.4-.77,1.09-1.74.86l-11.15-2.57c3.94-1.77,7.57-2.79,11.88-2.14-.97,1.26-2.39,1.26-4.09,1.8l4.5.04c.86,0,1,1.46.6,2.01Z"/>
    <path class="cls-20" d="M282.34,118.39c-1.83.92-6.52.64-6.9-2.08-.39-2.87,4.12-3.21,6.03-2.34,1.17.53,1.91.81,2.25,1.63.46,1.14-.06,2.14-1.38,2.8Z"/>
    <path class="cls-20" d="M236.15,116.05c.04,2.31-2.79,2.66-4.12,2.73-1.44.07-3.89-.45-3.96-2.38-.07-2.05,2.2-2.55,3.45-2.7,1.6-.2,4.57.09,4.63,2.36Z"/>
    <path class="cls-20" d="M169.31,280.94l-10.58,2.53c-1.36.33-2.24-.64-2.21-1.55.07-2.39,3.41-.35,6.92-.61-2.28-.61-4.09-.97-5.77-2.44,4.43-.78,8.21.36,11.65,2.08Z"/>
    <path class="cls-20" d="M263.59,160.1c-1.87.79-3.06-1.15-3.61-2.49-.76-1.81-.43-4.23,1.97-4.52,1.54-.18,2.54,1.72,2.93,2.72.5,1.31.61,3.49-1.28,4.29Z"/>
    <path class="cls-20" d="M358.9,258.56c-3.48,3.19-7.75-.75-8.72,1.12-.13.26-.18.67.8,1.47-1.69,1.62-4.4,1.3-6.85.35.17-.35.37-.62.58-.85.64-.68,1.44-.92,2.31-1.15l9.52-2.43c.09-.02.18-.03.28-.03.93,0,2.29.88,2.08,1.52Z"/>
    <path class="cls-20" d="M252.09,156.17c-.1,1.76-1.45,4.51-3.33,4.07-2.5-.58-2.56-3.89-1.26-5.59.75-.98,1.64-1.69,2.52-1.52,1.28.26,2.17,1.02,2.06,3.03Z"/>
    <path class="cls-20" d="M367.79,270.52c-.28,2.05-2.08,3.16-3.49,3.89-.71.38-1.49.55-2.25.55-1.35,0-2.71-.54-3.75-1.47,2.78-2.12,6.62-3.84,8.45-3.84.72,0,1.12.26,1.04.86Z"/>
    <path class="cls-20" d="M245.44,185.56c-.24,1.34-1.38,3.31-3.45,2.85-1.87-.41-2.36-2.43-1.95-3.85.33-1.14,1.48-2.73,3.19-2.48,1.72.25,2.48,2.07,2.22,3.49Z"/>
    <path class="cls-20" d="M270.04,188.51c-1.94.27-3.02-1.6-3.27-2.96-.3-1.57.91-3.57,2.65-3.49,1.8.07,2.64,1.82,2.82,2.99.2,1.36-.57,3.23-2.19,3.46Z"/>
    <path class="cls-20" d="M257.61,141.28c-.48.79-1.2.84-1.5.79-.29-.06-2.34-3.05-2-5.1.16-.96.84-3.14,2.22-2.92,2.39,1.12,2.56,5.12,1.28,7.23Z"/>
    <path class="cls-29" d="M341.23,161.64c-2.27-1.3-4.09-2.79-5.37-5-.59-1.03.72-2.79,1.98-2.42,2,.59,5.43,5.26,3.39,7.42Z"/>
    <path class="cls-2" d="M174.83,157.98l-3.26,3.01c-.54.5-.97.59-1.29.58-1.46-.03-1.44-2.71,1.94-6.24.86-.9,1.86-1.27,2.94-.33.78.67.82,1.91-.33,2.97Z"/>
    <path class="cls-20" d="M149.75,284.45c-.19,1.74-1.69,1.55-2.25,1.26-.32-.17-.61-.36-.89-.57-1.17-.92-1.88-2.22-2.11-3.81-.07-.51.09-1.56.72-2,.21-.15.47-.23.81-.2,1.07.11,2.16,1.03,2.88,2.21.6.96.95,2.11.84,3.11Z"/>
    <path class="cls-20" d="M170.79,294.63c-3.12,1.62-6.3-.25-9.19-1.48-1.15.44-2.83,1.29-3.93.52-.82-.56-2.56-2.08-1.36-3.31,1.26-1.28,3.07,1.39,4.15,1.66l10.32,2.6Z"/>
    <path class="cls-20" d="M240.27,171.15c-1.33.89-2.84.07-3.36-.68-.96-1.38-.58-2.98.62-4.02,1.28-1.1,3.1-.74,3.8.32.99,1.49.58,3.29-1.06,4.38Z"/>
    <path class="cls-20" d="M274.04,171.39c-1.68.41-3.05-.88-3.5-1.85-.51-1.11.15-3.03,1.69-3.57,1.54-.53,2.92.61,3.47,1.89.43,1.01.15,3.08-1.66,3.53Z"/>
    <path class="cls-20" d="M266.28,180.81c-1.66.19-2.34-1.6-2.68-2.49-.45-1.21-.1-3.15,1.52-3.45,1.69-.3,2.7,1.27,2.91,2.52.17.99-.54,3.27-1.76,3.42Z"/>
    <path class="cls-20" d="M252.03,130.62c-.88.36-1.8-.6-1.99-1.09-.63-1.62,1.09-4.69,3.53-5.46,1.74,2.06.97,5.52-1.54,6.55Z"/>
    <path class="cls-20" d="M267.01,201.83c-1.68.58-2.57-1.19-2.82-2.09-.38-1.3-.18-3.07,1.52-3.5,1.47-.38,2.31,1.13,2.56,2.03.3,1.11.36,3-1.26,3.56Z"/>
    <path class="cls-20" d="M247.9,199.77c-.31,1.32-1.54,2.8-3.07,2.03-1.12-.57-1.26-1.97-1.05-3.06.17-.85.86-2.25,2.2-2.58.99-.25,1.68.68,1.93,1.18.39.78.2,1.53,0,2.43Z"/>
    <path class="cls-20" d="M248.44,178.22c-.41,1.21-1.35,2.71-3.02,2.19-1.43-.46-1.54-2.33-1.19-3.54.26-.89,1.32-2.51,3.01-1.9,1.52.55,1.47,2.4,1.2,3.25Z"/>
    <path class="cls-20" d="M252.89,168.54c-.24,1.63-1.19,3.75-2.91,3.36-1.35-.32-1.48-2.16-1.21-3.26.25-1.03,1.06-2.73,2.65-2.7,1.21.03,1.66,1.33,1.47,2.6Z"/>
    <path class="cls-20" d="M370.96,267.37c-.37.01-.68-.11-.92-.35-1.04-1.04-.79-4.21,1.52-6.93,1.2,1.04,1.85,1.9,1.97,2.67.35,2.2-1.8,4.58-2.56,4.61Z"/>
    <path class="cls-20" d="M149.88,273.61l-2.54.77-1.75-1.4c-.81-.65-2.68-2.7-1.43-3.36,1.69-.89,3.81.89,4.95,1.43-.84.5-.22.81-.07,1.09l.83,1.48Z"/>
    <path class="cls-20" d="M243.06,159.32c-.06,1.23-.62,2.24-2.05,2.88-1.75.81-2.9-.72-2.87-2.33.03-1.37,1.46-2.26,3.07-2.27,1.06,0,1.88.84,1.85,1.71Z"/>
    <path class="cls-20" d="M272.21,162.37c-1.77.65-3.92-1.55-3.41-3.32s2.72-1.65,3.87-.81c1.19.86,1.39,3.44-.46,4.12Z"/>
    <path class="cls-20" d="M261.66,171.83c-1.99,0-3.1-3.94-1.81-5.42.9-1.03,2.02-.21,2.77.95.92,1.4,1.06,4.49-.96,4.47Z"/>
    <path class="cls-20" d="M261.83,129.61c-.45,1.48-1.94,1.09-2.52.64-1.55-1.21-1.5-4.32-.44-5.63,1.96.64,3.58,2.92,2.96,4.99Z"/>
    <path class="cls-20" d="M256.04,153.22c-1.64-2.72-1.68-5.89-.04-8.64,1.86,2.44,2,5.88.04,8.64Z"/>
    <path class="cls-20" d="M141.41,266.52c-1.37.86-2.62-1.24-2.79-2.2-.2-1.14.33-3.37,1.51-3.29,1.98.54,3.1,4.35,1.29,5.49Z"/>
    <path class="cls-20" d="M152.59,254.98c-.83.34-1.73.63-2.62.84-2.43.6-4.77.66-5.23-.24-.1-.2-.08-.61.04-1,.13-.36.35-.69.68-.77,2.24-.52,4.66,0,7.12,1.17Z"/>
    <path class="cls-20" d="M267.98,213.26c-1.26.68-2.42-.79-2.74-1.51-.5-1.09-.27-2.79,1.17-3.24,1.17-.36,1.9.93,2.19,1.62.35.85.78,2.37-.62,3.13Z"/>
    <path class="cls-20" d="M246.99,211.26c-.32.91-1.21,2.65-2.82,1.93-1.38-.62-1.03-2.19-.62-3.07.33-.69,1-1.97,2.22-1.58,1.23.38,1.58,1.7,1.23,2.73Z"/>
    <path class="cls-20" d="M367.31,254.95c0,.06,0,.12-.01.18-.05.44-.84,1.25-1.76,1.07l-6.4-1.21c4.03-1.92,8.17-2.02,8.17-.04Z"/>
    <path class="cls-20" d="M153.35,273.54c-1.78,1.52-4.01,1.33-6,.84l2.54-.77-.83-1.48c-.16-.28-.77-.58.07-1.09,1.26.59,2.88.9,4.23,2.49Z"/>
    <path class="cls-20" d="M256.17,126.58c-1.05-.32-1.44-1.28-1.63-1.82-.29-.84.08-2.36,1.37-2.57.83-.13,1.6,1.38,1.66,2.07.07.78-.67,2.54-1.41,2.32Z"/>
    <path class="cls-20" d="M171.32,297.78c-.16,1.39-3.98,3.28-4.72,1.25-.52-1.44,3.01-2.8,4.72-1.25Z"/>
    <path class="cls-20" d="M250.79,192.46c-1.49-.1-1.06-4.43.71-4.35,1.74.1,1.29,4.48-.71,4.35Z"/>
    <path class="cls-20" d="M321.86,150.93c-1.72-1.95-2.84-4.7-1.31-7.41,1.03,2.39,1.43,4.67,1.31,7.41Z"/>
    <path class="cls-12" d="M281.3,160.18c-.59.53-1.68.61-2.22-.08-.57-.71-.45-2.01.41-2.54.69-.43,1.72-.23,2.31.37.56.58.24,1.6-.5,2.25Z"/>
    <path class="cls-20" d="M347.73,294.65c-2.14.4-4.15,1.44-6.72.37,2.34-1.18,4.78-1.8,7.27-1.83-.65.45-.72,1.26-.55,1.46Z"/>
    <path class="cls-20" d="M344.89,299.54c-1.76.67-3.3-.41-5.17-1.8,1.09-.16,2.5-.92,3.82-.21l1.17.62c.38.21.72,1.18.18,1.39Z"/>
    <path class="cls-20" d="M261.42,192.85c-1.63-1.37-1.88-3.52-.8-5.2,1.77,1.18,2.17,3.07.8,5.2Z"/>
    <path class="cls-23" d="M232.12,160.3c-.78.47-1.45-.04-1.84-.67-.55-.89.22-1.63,1.14-2.08.7-.35,1.43.33,1.71.95.25.56-.5,1.49-1.01,1.8Z"/>
    <path class="cls-20" d="M190.32,149.83c-.01-2.26.07-4.15,1.17-6.21,1.13,2.1.54,4.53-1.17,6.21Z"/>
    <path class="cls-20" d="M176.31,308.01c-1.06.81-2.19,1.54-3.73,1.7-.38.04-.65-.3-.7-.69-.05-.3.03-.63.29-.83.76-.6,2.73-.95,4.15-.18Z"/>
    <path class="cls-20" d="M339.52,309.01c-.46,1.26-3.61.08-3.7-1.32,1.04-.34,3.2-.28,3.7,1.32Z"/>
    <path class="cls-40" d="M196.92,180.96c-.83-1.01-1.43-3.38-1.1-4.91l1.47,4.05c.18.47-.19.82-.37.86Z"/>
    <path class="cls-19" d="M294.14,320l2.02-5.1c.11,2.04-.49,3.89-2.02,5.1Z"/>
    <path class="cls-36" d="M217.21,319.4c-.61-1.32-1.18-2.7-1.39-4.12.13-.07.3-.24.35-.31l1.36,3.56c.16.41-.08.74-.33.87Z"/>
    <path class="cls-25" d="M233.59,192.83c-.51.35-.95.13-1.18-.16-.36-.45-.15-1.02.52-1.24.46-.16.69.19.81.35.28.38.1.86-.16,1.04Z"/>
    <path class="cls-28" d="M313.82,184.58c.05-.75.5-1.42.85-2.02.59.81.41,1.86-.85,2.02Z"/>
    <path class="cls-18" d="M279.35,192.76c-.38.27-.95-.25-.53-.97.39-.68.74-.08.84.05.28.4.07.64-.3.92Z"/>
    <path class="cls-41" d="M198.37,184.55c-.38.28-.95-.25-.53-.97.39-.67.73-.08.83.05.28.4.07.65-.3.92Z"/>
    <path class="cls-8" d="M367.15,364.24c-.92.1-1.69-.41-2.44-.82.03-.12.15-.26.3-.29.8-.16,1.47.36,2.16.6.48.17.13.55-.02.51Z"/>
    <path class="cls-20" d="M138.26,168.57c-13.55,8.98-23.12,22.05-29.18,37.82l-1.02-.87c-.59-2.34-2.53-5.61-2.53-8.38.82-.47,1.24.3,2.21.67-2.21-5.45-.28-11.07,4.06-14.85-10.21-12.9-21.81-25.05-24.12-41.94-.47-3.38-.3-6.72.87-9.64,1.35-3.39,4.33-4.31,7.41-3.19l9.29,3.4c-4.27-.2-7.61-1.03-10.33,1.74,2.36-.65,4.22-1.28,6.3-.16l-6.91,2.1,6.49-.07c-.84.3-1.75.55-2.68.81-.04,0-.08.02-.12.03-1.4.4-2.83.84-4.06,1.59,0,0,0,0,0,0-.16.09-.31.18-.46.29-.09.18.34.72.6.83,0,0-.01-.02-.01-.04s0-.04.03-.07c.01-.03.04-.06.08-.09.03-.02.07-.05.1-.08.03-.03.07-.05.1-.08.04-.02.1-.06.16-.1.1-.06.21-.13.35-.2.28-.15.63-.31,1.04-.49.07-.03.13-.06.2-.08.07-.03.16-.07.24-.1.37-.14.78-.29,1.22-.43.18-.06.36-.12.55-.17.18-.05.35-.1.55-.16,0,0,.02,0,.04,0,.1-.03.21-.05.31-.08.1-.02.19-.05.29-.07h.01c.21-.05.42-.1.64-.14,0,0,.01,0,.01,0,.16-.03.3-.06.47-.09.08-.01.16-.03.24-.04.1-.02.21-.04.33-.06.18-.02.35-.05.54-.08.19-.02.38-.04.58-.07.38-.04.75-.07,1.15-.1.18,0,.36-.01.55-.02.43-.01.86-.01,1.29,0,.44,0,.87.04,1.32.08-1.63.87-3.33.16-4.74,1.2,6.94.01,12.96-.18,18.84,1.91l-7.74-.04,4.08,1.18h.01l4.22,1.22c.47.13.93.24,1.39.35.95.24,1.86.55,2.63,1.37l-3.41-.27-.33-.03-.41-.04-7.9-.64h-.07l-1.88-.16c-.09.04-.21.12-.29.28-.03.04-.05.09-.07.15l15.46,2.51-.36.4-.75-.1-.91-.13-3.27-.44-.68-.09-.76-.1-.7-.09-.69-.09-2.71-.37-2.03-.14h-.04l-3.7-.25c-.57-.04-1.8-1.35-2.34.5,6.93.43,13.47,1.7,19.78,4.4-5.07.46-9.24-.39-13.58.45,4.32.21,8.06,1.09,12.1,2.7-3.93.21-7.91.43-11.68,2.39,6.94-.47,13.13-.16,19,2.6-4.22.13-7.75.45-12.05,1.58l8.32,1.79c-3.86,1.03-7.17.48-10.54,2.57,6.73-.42,12.84.44,19.13,2.17-3.79.95-7.12.64-10.58,2.11,3.98-.04,7.14,1.29,11.06,1.71Z"/>
    <path class="cls-20" d="M421.45,136.78v.29c.14,5.8-2.04,11.98-5.11,17.72-.01.04-.04.07-.05.1-2.31,4.29-5.1,8.35-7.79,11.82l-12.39,16.01c4.85,3.76,6.44,9.86,3.75,15.59,1.43-.13,1.78-1.09,2.54-1.83.5,1.35.07,1.8.07,2.51-.12,1.84-1.63,3.48-2.28,5.41l-.84,2.08-.08.21c-.4-1.19-.84-2.36-1.32-3.53-.01-.03-.03-.06-.04-.09-2.12-5.19-4.9-10.18-7.94-15.12-4.66-7.58-10.3-13.99-17.21-19.39,1.35-.14,2.25,0,3.13-.58l-1.18-.03h-.21l-2.34-.05h-.58c-.11-.09-.2-.16-.27-.24-.09-.1-.16-.19-.18-.29l11.82-.54c-4.23-1.06-8.03-1.52-12.37-1.86-1.12.61-.94-1.13.06-.29,6.98-1.4,13.32-2.31,20.48-2.43-3.66-1.66-7.32-1.82-11.1-1.77,3.36-1.31,6.4-1.56,9.98-2.18-3.46-1.06-6.73-1.3-10.87-1.6,5.25-3.38,11.18-2.93,17.48-2.66-3.1-1.74-6.3-1.7-9.93-2.51,3.67-1.99,7.12-2.03,10.92-2.65l-14.01-.44c5.5-2.56,10.68-3.04,16.33-4.49l-12.56.64c4.43-1.31,9.08-1.85,14.02-1.46.73.05,1.52.78,2.21-.4-5.04-1.18-9.64-1.28-15.03-.8,4-2.67,8.62-1.92,13.42-3.13-4.97-.73-9.66.43-15,.94,7.02-2.78,14.38-3.1,22.06-1.92-.33-.53-.79-1.22-.5-1.62.19-.02.37-.03.55-.03h.02c.88,0,1.73.14,2.56.38.09.03.18.06.27.09.15.04.3.1.45.16.24.09.47.18.71.27.18.07.37.15.55.23.15.07.3.13.44.2.08.04.16.07.24.11.42.21.84.41,1.26.63-1.57-2.34-4.06-3.19-6.42-4.15,2.86-1,4.65.19,7.01.89-2.23-2.48-5.36-2.79-8.4-1.97l2.17-1.37c-3.59,0-6.08,1.3-9.21.23,3.98-.16,7.69-.77,11.27-2.88-3.26-.16-5.61,1.12-8.17,1.68l-.35-.46c3.22-1.06,6.75-2.19,9.81-2.39,0,0,.02,0,.03,0,3.48-.24,6.33.73,7.38,4.37.04.16.09.32.13.48,0,.01.01.03.01.04.34,1.33.52,2.7.58,4.09Z"/>
    <path class="cls-11" d="M360.83,226.24l-15.81-3.7c-10.34-2.42-20.61-2.82-30.49.67-.87.31-1.71.66-2.53,1.06-.09.04-.18.09-.27.14-5.46,2.76-9.24,7.56-10.46,14.12-2.09,11.29-2.9,22.7-3.39,34.31-.28,6.61.73,12.76,2.22,18.67-.34.21-.69-.16-1.01-.85-.02-.03-.04-.06-.05-.1-.72-1.57-1.29-4.56-1.2-5.73.06-.77-.13-1.48-.34-2.17,0,0,0-.02,0-.03-.3-.99-.65-1.93-.42-2.93.06-.27.1-.55.14-.82v-.02c.18-1.53-.07-3.06-.37-4.63v-.03c-.16-.83-.33-1.67-.44-2.54-.29-2.08-1.39-4.62-2.69-7.7,0-.02-.01-.04-.02-.06-1.4-3.34-3.02-7.32-4.06-11.99-.01-.06-.02-.11-.04-.16-.35-1.63-.64-3.33-.82-5.13-.07-.68-.1-1.36-.1-2.03,0-.2,0-.4,0-.61.18-5.79,2.9-10.84,7.61-14.31.22-.17.45-.33.69-.49l9.28-6.3.04-.03h0c.04.14.09.27.13.38.19.52.39.84.75,1.11h0c.19.16.44.29.76.44.18.09.33.16.48.2h0c.35.1.64,0,1.09-.45.04-.05.1-.1.15-.16.45-.21.92-.41,1.36-.62l.55-.27c.3-.16.6-.32.87-.5.06-.04.11-.08.17-.13.1-.07.2-.15.29-.23.07-.06.14-.12.2-.18.22-.21.41-.46.56-.74.04-.05.07-.1.09-.16.01-.03.03-.06.04-.1.03-.07.06-.13.08-.21.04-.09.07-.18.09-.27,1.38.42,2.27-.58,3.33-1.18-.63-2.45.11-4.18.36-4.05l-.65-.78,2.42-1.63c-.12-.39-.34-.6-.55-.73l-.02-.02c-.16-.1-.3-.16-.38-.23-.06-.05-.07-.16-.05-.3v-.02c.03-.18.1-.4.2-.58.03-.05.05-.1.09-.14.04-.07.1-.14.14-.18,7.31-6.73,11.22-15.73,11.09-26.08,13.92,9.65,23.94,25.64,29.87,40.08,1.2-.86,1.43.63.96,1.12Z"/>
    <path class="cls-11" d="M201.56,225.25v.02c0,.07,0,.13-.03.2-9.79-5.2-21.43-6.16-32.66-3.41l-18.85,4.6c-.24.06-.46.09-.62.16-.02,0-.04.02-.07.03-.07.04-.13.09-.18.16-.03.04-.06.09-.08.15-.02.05-.04.11-.05.18,0,0,0,.01,0,.02-.3-.03-.38-.13-.44-.3-.1-.25.06-.57.27-.81,0,0,0,0,0-.01l.11-.11c.33-.31.61-.55.94-.71.04-.02.09-.04.13-.06.32-.13.67-.19,1.1-.18.09,0,.18,0,.27.01.13.01.27.03.42.05,6.29-15.14,16.53-30.54,30.97-40.34-.23,3.24-.04,6.45.61,9.53.01.09.03.18.05.27.88,4.01,2.54,7.8,5.08,11.15h0s.05.08.08.12l4.79,6.27-4.01.52,4.22,2.44c-.83.67-2,.88-2.65.33-.13-.1-.24-.24-.33-.4-.29-.1-.7-.1-1.19-.04h-.03c-.64.08-1.39.26-2.15.52l6.83,2.74c-.34.37-.62.63-.81.84l-.03.03c-.12.13-.21.24-.25.35-.02.04,0,.1.03.17.05.09.15.19.26.27,0,0,0,0,.01,0,.15.1.33.16.43.07.37-.33.6-.35,1.05.16.13.16.29.27.47.36.02,0,.04.01.07.03.28.13.62.2,1.06.27,0,0,0,0,0,0,.01,0,.04,0,.06,0,.24.07.42.24.49.5-.21.15-.34.29-.41.41h0c-.22.38.15.6.52.63,0,0,.02,0,.03,0,1.12.4,2.25.89,3.1,1.38,0,0,.01,0,.03.01.8.47,1.34.96,1.37,1.4Z"/>
    <path class="cls-11" d="M197.79,305.17l-3.89,6.53c-.28-.13-.37-.27-.38-.42-.03-.15.01-.3-.03-.44-.01-.04-.02-.08-.03-.12h0c-.04-.34.15-.58.35-.76,0-.01.01-.02.02-.02.15-.14.3-.25.35-.35l3.15-5.31c.34-.64.66-1.29.94-1.94,2.63-5.93,3.04-12.28,1.27-18.11-.01-.04-.02-.08-.04-.13-1.38-4.45-4.05-8.58-8-11.98-8.03-6.92-17.11-9.22-27.09-16.72l-.72-.53-8.14-6.12-.2-.15c-3.11-2.34-3.67-5.72-1.78-9.17l.05-.09h0s4.32-7.87,4.32-7.87c-1.63-.16-2.39-.1-3.02-.78,2.31-1.71,5.59.42,6.53,2.38l4.23,8.97c5.37,11.38,16.78,17.51,29.39,16.24,5.17-.52,9.25,2.19,10.12,7.35,2.3,13.69-.33,27.66-7.41,39.52Z"/>
    <path class="cls-11" d="M355.97,248.31c-2.56,2.1-5.14,4.13-7.79,6.05-.39.29-.79.57-1.18.85-.58.41-1.18.83-1.77,1.23-1.23.84-2.49,1.65-3.76,2.43-.64.39-1.28.78-1.93,1.15-.65.38-1.3.74-1.97,1.1-.44.24-.89.48-1.33.71l-10.76,5.58-.78.41c-7.8,4.68-12.63,12.39-12.68,21.48v.14c0,.32,0,.64.01.95.1,2.8.77,5.2.44,7.98-1.41-1.32-.16.01-1.34.72-4.76-10.36-6.61-22.03-4.69-33.46.89-5.29,4.8-7.92,10.13-7.41,10.4,1.01,20.21-3.19,26.12-11.72,4.86-7.01,6.36-15.19,9.5-16.03,1.85-.49,3.75-.39,5.12.74-1.53.58-3.18-.68-3.59.31-.57,1.35,9.22,11.06,2.24,16.78Z"/>
    <path class="cls-11" d="M222.78,248.19c0,.15-.03.3-.04.44-.86,7.35-4.52,15.22-8.17,22.48l.15,5.47c-.13.17-.79.18-.96.14l.14-3.4c-.58-11.54-1.63-22.9-3.64-34.2-.88-4.97-3.2-9.45-6.95-12.31.05-.1.16-.35.19-.54.01-.1,0-.18-.06-.21-.04-.02-.11-.05-.18-.09,0,0-.02-.01-.04-.03-.04-.03-.09-.07-.13-.1-.04-.02-.07-.05-.1-.09-.03-.03-.06-.07-.09-.1s-.05-.08-.07-.13c-.01-.05-.04-.1-.04-.16-.01-.05-.02-.11-.01-.17,1.38-.1,2.7-.67,2.99-2.02h.02s8.89,6.47,8.89,6.47c.51.37.99.75,1.44,1.13,0,0,0,0,.01.01,5.74,4.85,7.32,10.9,6.65,17.38Z"/>
    <path class="cls-20" d="M385.27,278.28c-.01.07-.03.15-.05.22-.03.13-.06.25-.1.37-.41,1.37-1.11,2.38-2.11,2.79,0,0,0,0-.01,0-.16.07-.34.13-.52.16-1.26.24-2.53-.54-3.33-1.62-5.31-7.18-2.22-16.44-4.7-18.88-.65-.64-1.21-1.35-1.7-2.14-.82-1.31-1.45-2.78-1.96-4.32-.19-.61-.38-1.23-.54-1.86,0-.01,0-.02-.01-.04-.23-.86-.42-1.74-.61-2.59-.66-3.1-1.85-6.06-3.44-8.79,0-.02-.02-.04-.04-.07-2.33-4.01-5.45-7.52-8.82-10.3-1.37-1.13-3.27-1.23-5.12-.74-3.15.84-4.65,9.02-9.5,16.03-5.91,8.54-15.72,12.73-26.12,11.72-5.33-.51-9.24,2.11-10.13,7.41-1.92,11.43-.07,23.1,4.69,33.46,6.9,15.03,18.62,25.94,22.47,43.89.86,3.98,1.33,7.94,1.32,12.28l-5.23-.38h0s-4.33-.33-4.33-.33c-.73-2.99-2.99-6.13-2.63-9.46.73-6.95-.18-13.23-3.38-19.43-.05-.1-.1-.2-.16-.3l-.1-.15-4.91-7.49-.05-.07-3.57-5.44c-1.66-2.51-3.27-5-4.74-7.52-.1-.18-.21-.35-.3-.52-1.94-3.35-3.61-6.78-4.75-10.4-.03-.05-.04-.1-.05-.16-.09-.24-.16-.48-.23-.73-.01-.04-.03-.08-.04-.13-.13-.41-.24-.84-.35-1.26-1.49-5.91-2.51-12.06-2.22-18.67.49-11.61,1.3-23.02,3.39-34.31,1.22-6.56,5-11.35,10.46-14.12.09-.05.18-.1.27-.14.81-.4,1.66-.75,2.53-1.06,9.87-3.49,20.15-3.09,30.49-.67l15.81,3.7c.61.06,1.14-.01,1.7.45l-2.46,1.75,5.35,6.95.1.12.18.24.39.51,10.13,13.14.12.16,1.49,1.92c.8,1.04,1.49,2.29,1.83,3.53.01.02.02.04.02.07.08.28.14.56.18.84l.97,6.48c1.92,2.19,3.27,5.06,4.02,7.92.01.05.02.1.04.15.73,2.86.87,5.69.39,7.82Z"/>
    <path class="cls-9" d="M340.55,235.88c-.28,5.96-4.4,11.06-9.73,14.03-6.84,3.8-15.14,3.02-20.52-2.39l4.57-4.76,2.28-2.26c3.86,3.36,9.59,2.4,12.11-2.01.49-.85,1.38-1.98,1.34-2.92,3.32.73,6.64.54,9.95.31Z"/>
    <path class="cls-30" d="M317.15,240.5l-2.28,2.26-4.57,4.76c-1.91-1.92-3.92-4.47-3.98-7.53-.08-4.35,3.97-7.91,7.99-7.97-.14,3.53.5,6.43,2.84,8.47Z"/>
    <path class="cls-31" d="M340.69,232.89l-10.12.39-1.45-4.91c3.12-.05,6.24-.51,9.32.22,1.95.46,2.31,2.88,2.25,4.3Z"/>
    <path class="cls-11" d="M340.69,232.89l-.14,2.99c-3.31.22-6.64.42-9.95-.31-.03-.78-.31-1.7-.02-2.29l10.12-.39Z"/>
    <path class="cls-7" d="M317.26,231.98c.82-.43,1.61-.02,2.08.61.53.71.23,1.62-.31,2.05-.95.75-1.85.38-2.24-.12-.69-.91-.49-2.02.47-2.53Z"/>
    <path class="cls-17" d="M327.11,232.57c.78-.26,1.42.15,1.77.82.27.52.16,1.38-.63,1.52-.61.1-1.25.06-1.93-.56-.46-.41-.26-1.43.8-1.78Z"/>
    <path class="cls-20" d="M213.88,273.32l-.14,3.4c.02,5.37-.75,10.61-2.22,15.65-.03.11-.07.22-.1.33-1.88,6.34-4.86,12.37-8.72,17.97-.02.04-.05.08-.08.13-.47.67-.95,1.34-1.44,2l-7.77,11.98c-1.57,2.42-2.65,4.94-3.34,7.55,0,0,0,.02,0,.04-.92,3.5-1.12,7.17-.81,10.97.04.58.1,1.17.18,1.76.22,1.81-.35,3.57-1.03,5.26-.54,1.38-1.14,2.71-1.42,4l-10.04.66c.11-9.17,2.28-17.55,6.07-25.28,1.54-3.14,3.36-6.13,5.23-9.09.48-.75.96-1.5,1.44-2.25.27-.4.52-.81.78-1.21.57-.89,1.15-1.78,1.7-2.68.2-.3.38-.61.57-.91.4-.63.78-1.26,1.16-1.89l3.89-6.53c7.08-11.86,9.7-25.83,7.41-39.52-.87-5.17-4.94-7.87-10.12-7.35-12.62,1.26-24.03-4.86-29.39-16.24l-4.23-8.97c-.93-1.96-4.21-4.09-6.53-2.38-3.26,2.41-6.39,5.74-8.79,9.53-2.05,3.2-3.56,6.73-4.21,10.31-.05.31-.12.61-.18.91,0,.01-.01.04-.01.05-.21.95-.47,1.86-.78,2.73-1.15,3.28-2.37,5.63-4.55,8.15-.13.16-.86.74-1,.9.64,4.41-.31,9.39-1.91,13.1-.25.58-.52,1.14-.8,1.65-.04.08-.08.16-.13.23-.15.26-.3.51-.44.75-.3.46-.6.88-.91,1.24-.21.24-.41.46-.63.67-1.17,1.08-2.39,1.43-3.49.67-.31-.21-.59-.47-.83-.75-.07-.07-.13-.14-.18-.21-.6-.77-.97-1.74-1.13-2.83-.16-1.06-.13-2.25.06-3.51,0-.01,0-.02,0-.04.47-3.1,1.94-6.6,4.04-9.68.61-.91,1.29-1.79,2.01-2.6.12-.13.06-.71.1-1.01.01-.11.04-.18.1-.18l.85.04c-.13.42-.56.84-.38,1.59.03.12.3.21.6.21.19,0,.39-.04.54-.14.24-.18.26-.64.11-1.11-.09-.3-.42-.54-.86-.55-1.35-2.34-1.22-5.65.56-8.33.13-.21.27-.41.41-.61,3.29-4.9,6.92-9.48,10.69-14.01.01-.02.04-.05.06-.07,2.53-3.03,5.11-6.05,7.71-9.11,0,0,0-.01.01-.02-.34-.39-.69-.66-1.04-.85-.48-.25-.95-.36-1.39-.42,0,0-.02,0-.03,0-.04,0-.07,0-.11-.01,0,0,0-.01,0-.02.01-.07.03-.13.05-.18.02-.06.05-.1.08-.15.05-.07.11-.12.18-.16.02,0,.04-.02.07-.03.16-.07.38-.1.62-.16l18.85-4.6c11.23-2.74,22.87-1.78,32.66,3.41l1.77,1.35c3.75,2.85,6.07,7.34,6.95,12.31,2.01,11.3,3.07,22.65,3.64,34.2Z"/>
    <path class="cls-13" d="M193.78,240.82c-.04,1.05.57,1.98,1.61,1.99-.35,1.36,1.28,1.83,2.43,1.52,1.21,1.69,3.64,1.89,5.13.83-1.75,2.74-4.34,4.84-7.73,6.04-11.05,3.91-22.78-3.65-24.26-15.05,3.18-.61,6.65.62,10.29-.48.35,2.69,2.31,5.03,4.4,6,2.89,1.35,5.91.86,8.13-.85Z"/>
    <path class="cls-42" d="M202.95,245.16c-1.49,1.06-3.92.86-5.13-.83-1.15.31-2.79-.16-2.43-1.52-1.04,0-1.65-.93-1.61-1.99,2.56-1.98,3.82-4.98,3.5-8.86,4.12.24,7.92,3.68,7.94,8.04,0,2.05-1.36,3.73-2.27,5.15Z"/>
    <path class="cls-6" d="M181.37,233.58l-10.55-.89c-.06-1.47.39-3.75,2.42-4.1,3.21-.56,6.44-.19,9.58.14l-1.45,4.85Z"/>
    <path class="cls-37" d="M181.37,233.58c-.21.71-.18,1.54-.11,2.1-3.65,1.1-7.11-.13-10.29.48l-.15-3.46,10.55.89Z"/>
    <path class="cls-32" d="M184.85,231.51c.89-.44,1.9-.26,2.56.53.57.67.43,1.73-.41,2.31-.97.68-1.89.66-2.47-.04-.79-.97-.78-2.24.32-2.79Z"/>
    <path class="cls-20" d="M188.77,367.14l-4.97.75-5.68.85-1.15-12.23,9.11-.59c-.11.61-.18,1.2-.22,1.78-.21,3.41.85,6.37,2.92,9.45Z"/>
    <path class="cls-20" d="M334.93,356.54l-1.16,12.3-2.61-.41-7.73-1.23c2.45-3.67,3.49-7.12,2.68-11.33l4.01.3,4.81.37Z"/>
    <path class="cls-20" d="M331.71,376.72l-2.77,6.69-1.43-.47-8.07-2.59c-.27-.13.11-1.17.54-2.08,2.23,0,4.17,1.11,6.44,1.71-1.64-1.6-3.76-1.76-6.01-2.62l1.09-3.64,8.3,2.45,1.91.56Z"/>
    <polygon class="cls-20" points="328.31 384.53 324.71 391.11 323.73 390.49 315.68 385.46 318.58 381.36 327 384.11 328.31 384.53"/>
    <path class="cls-20" d="M196.44,385.26l-8.72,5.25-.47.29c-1.61-1.69-2.35-3.63-3.53-5.85l1.61-.54,8.62-2.9,2.49,3.75Z"/>
    <polygon class="cls-20" points="190.23 373.04 183.65 374.65 179.89 375.57 178.35 369.52 183.71 368.87 188.71 368.25 190.23 373.04"/>
    <path class="cls-20" d="M332.05,375.53l-1.99-.46-8.06-1.86,1.41-4.7c2.18.21,3.61-.32,5.49.58.43,0,1.33-.07,2.19.02.95.1,1.86.35,2.03,1.03.47,1.89-.76,3.75-1.07,5.4Z"/>
    <path class="cls-20" d="M191.99,377.5l-7.58,3.25-1.77.76c-1.35-1.22-1.46-2.79-2.31-4.43.65-.86,1.87-1.21,3.19-1.51l.18-.04,7.05-1.57c.29,1.4.61,2.26,1.23,3.54Z"/>
    <path class="cls-20" d="M320.97,396.59c-7.52,8.23-15.9,14.44-26.86,11l-13.73-4.3c-3.41-1.07-7.09-1.97-10.43-.91-1.29.41-2.25.24-3.88.23.74.81,1.36,1.09,1.83,2.19-1.48-.34-2.03-1.05-3.41-1.8-.19,1.35.55,1.83,1.23,2.79-1.43-.27-2.14-1.1-3.3-1.82-.98,1.53.09,2.34.91,3.39l-4.01-3.02,1.17,3.89-2.45-2.53-.21,2.99-1.74-2.39-.37,2.31c-.86-.51-1.1-1.12-1.06-2.36-.99.47-.86,1.2-1.21,2.45l-.87-3.58-2.12,2.48c-.24-1.29.21-1.87.72-3.05-2.03,0-2.62.99-4.06,2.02-.1-1.54.96-1.9,1.68-3.06l-4.46,1.72c.1-.93.63-1.4,1.49-2.44l-3.33.24c-1.35-1.48-3.47-1.29-5.29-.99-17.83,2.94-27.71,15.45-46.35-5.66.11-.09.23-.18.34-.27,3.13-2.44,5.99-5.03,10.04-6.01-1.52,3.58-2.85,6.47-2.53,9.84.12,2.13,1.23,3.78,2.9,4.98h0c1.53,1.09,3.54,1.8,5.68,2.13,0,0,.01,0,.02,0,3.07.47,6.43.18,9.09-.84l27.55-10.58c3.33-1.28,6.75-3.1,8.81-6,4.11-5.78,1.87-13.55-3.86-17.36-2.59-1.71-4.67-3.81-6.21-6.43-5.36-9.12-16.36-7.33-23.03-17.97-2.49-3.98-3.55-8.6-2.25-12.8.16-.55.36-1.08.61-1.6.36-.77,2.21-2.62,2.72-1.62l3.63,7.18,4.37-4.06c.14-.13.28-.26.43-.38.02-.01.04-.03.06-.04,2.89-2.34,6.71-2.61,10.26-1.13h.04s8.43,3.53,8.43,3.53l1.24.52c2.54,1.05,5.1,1.49,7.66,1.36h.06s.01,0,.02,0c.16-.01.33-.03.48-.04,2.03-.16,4.04-.68,6.04-1.52l9-3.76h.03s.21-.1.21-.1c3.67-1.54,7.37-.99,10.38,1.22.85.62,1.63,1.37,2.36,2.24.67.81,1.59,1.89,2.5,2.1l3.61-7.01c.53-1.03,2.65,1.41,2.98,2.33.21.58.37,1.17.5,1.75.84,4.04-.28,8.11-2.53,11.81-6.68,10.95-17.83,8.71-23.3,18.24-1.47,2.56-3.68,4.63-6.22,6.41-4.82,3.37-7.07,8.93-4.94,14.85.44,1.23,1.15,2.35,2.05,3.34,1.73,1.94,4.15,3.41,6.58,4.36l27.95,10.9c3.22,1.26,7.3,1.62,10.8.98,0,0,.01,0,.02,0,2.53-.45,4.75-1.43,6.13-2.94,0,0,0,0,.01,0,.63-.69,1.09-1.49,1.32-2.42,1-3.87-.39-7.34-2.06-11.23,3.65,1.45,6.36,3.36,9.21,5.54.31.23.62.47.93.71Z"/>
    <path class="cls-20" d="M396.54,309.85c0,.11,0,.22,0,.33,0,.13-.01.25-.03.38-.16,1.4-.47,2.67-1.05,3.91-1.8,3.83-5.57,6.13-8.19,4.66-1.46-.83-2.22-2.31-2.35-4.02-.13-1.63.31-3.48,1.23-5.14-.18-.31,0-.5.14-.57.59-1.24,1.57-2.62,2.82-3.6.09-.07.18-.13.27-.18.77-.55,1.63-.94,2.56-1.04.4-.05.81-.04,1.23.01.93.13,1.63.61,2.16,1.26,0,0,0,0,.01.01.77.98,1.13,2.36,1.2,3.58,0,.13,0,.27,0,.4Z"/>
  </g>
</svg>